<?xml version="1.0" encoding="UTF-8" standalone="no"?>
<!-- Created with Inkscape (http://www.inkscape.org/) -->

<svg
   width="1235.2533"
   height="1427.9381"
   viewBox="0 0 326.82741 377.80864"
   version="1.1"
   id="svg23489"
   xmlns="http://www.w3.org/2000/svg"
   xmlns:svg="http://www.w3.org/2000/svg"
   xmlns:rdf="http://www.w3.org/1999/02/22-rdf-syntax-ns#"
   xmlns:cc="http://creativecommons.org/ns#"
   xmlns:dc="http://purl.org/dc/elements/1.1/">
  <defs
     id="defs23483" />
  <metadata
     id="metadata23486">
    <rdf:RDF>
      <cc:Work
         rdf:about="">
        <dc:format>image/svg+xml</dc:format>
        <dc:type
           rdf:resource="http://purl.org/dc/dcmitype/StillImage" />
        <cc:license
           rdf:resource="" />
        <dc:creator>
          <cc:Agent>
            <dc:title>Robert Brooks</dc:title>
          </cc:Agent>
        </dc:creator>
      </cc:Work>
    </rdf:RDF>
  </metadata>
  <g
     id="layer1"
     transform="translate(-378.14628,40.690214)">
    <g
       id="g5435"
       transform="matrix(16.696487,0,0,16.696487,2565.9757,-2406.5047)">
      <g
         id="g5142"
         transform="matrix(1.0608328,0,0,1.0608328,-56.048397,-78.085449)">
        <path
           id="path5144"
           d="m -61.781401,221.89067 c -0.211154,2.22755 -0.04619,2.39447 -0.140393,2.55933 -0.09421,0.16486 -0.818122,0.19134 -0.778107,-0.0221 0.07065,-0.37682 -0.02355,-1.78362 0.0471,-2.25465 0.07065,-0.47102 0.871397,-0.28261 0.871397,-0.28261 z"
           style="color:#000000;display:inline;overflow:visible;visibility:visible;fill:#140800;fill-opacity:1;fill-rule:nonzero;stroke:none;stroke-width:12;marker:none;enable-background:accumulate" />
        <path
           id="path5146"
           d="m -61.778784,222.33814 c -0.537575,1.3854 -0.293639,1.84567 -0.381938,2.21767 -0.03959,0.16678 -0.280115,0.15473 -0.303666,-0.081 -0.02355,-0.23551 0.07589,-0.98287 -0.11514,-1.94847 -0.07783,-0.39344 0.821679,-0.43963 0.800744,-0.18841 z"
           style="color:#000000;display:inline;overflow:visible;visibility:visible;fill:#ff6700;fill-opacity:1;fill-rule:nonzero;stroke:none;stroke-width:12;marker:none;enable-background:accumulate" />
      </g>
      <g
         transform="matrix(1.0608328,0,0,1.0608328,-57.684168,-75.151875)"
         id="g5148">
        <path
           id="path5150"
           d="m -61.797823,218.98234 c 0.426954,0.9261 -0.09595,1.36345 0.252309,1.91034 0.355418,0.55813 1.243523,0.39648 1.495832,0.14417 0.25231,-0.2523 0.126156,-0.70286 0.180221,-1.13537 0.05407,-0.43254 0.432531,-0.61278 0.01802,-0.93715 -0.414509,-0.32441 -1.045281,-1.06333 -1.567923,-0.66682 -0.666816,0.34242 -0.378463,0.68483 -0.378463,0.68483 z"
           style="color:#000000;display:inline;overflow:visible;visibility:visible;fill:#191919;fill-opacity:1;fill-rule:nonzero;stroke:none;stroke-width:3;marker:none;enable-background:accumulate" />
        <path
           style="color:#000000;display:inline;overflow:visible;visibility:visible;fill:#d6d6d6;fill-opacity:1;fill-rule:nonzero;stroke:none;stroke-width:3;marker:none;enable-background:accumulate"
           d="m -61.297233,218.67873 c 0.312099,0.39988 -0.02099,1.58954 0.154566,1.90164 0.175555,0.3121 0.672962,0.21457 0.809505,0.078 0.136543,-0.13654 0.04406,-1.08685 0.07951,-1.32005 0.101348,-0.66661 0.88287,-0.0973 0.658496,-0.27288 0.25141,-0.55124 -1.390255,-1.77712 -2.188727,-0.63905 0.270331,-0.018 0.48665,0.25234 0.48665,0.25234 z"
           id="path5152" />
        <path
           style="color:#000000;display:inline;overflow:visible;visibility:visible;opacity:0.123894;fill:#467390;fill-opacity:1;fill-rule:nonzero;stroke:none;stroke-width:3;marker:none;enable-background:accumulate"
           d="m -232.625,4703.2188 c 0.57698,0.2792 0.9375,0.75 0.9375,0.75 1.17959,1.5113 -0.0698,6.0079 0.59375,7.1874 0.66351,1.1796 2.54643,0.8287 3.0625,0.3126 0.51607,-0.5161 0.17852,-4.1187 0.3125,-5 0.0994,-0.6536 0.35338,-1.0007 0.6875,-1.1563 -0.22321,-0.012 -0.48003,0.032 -0.75,0.1563 -1.77099,0.8173 -0.82373,2.1064 -0.6875,3.4687 0.13623,1.3623 -0.52637,2.4736 -1.34375,1.6563 -0.81738,-0.8174 0.13305,-3.1378 -0.34375,-4.5 -0.47001,-1.3429 -0.95487,-2.77 -2.46875,-2.875 z"
           transform="matrix(0.26458334,0,0,0.26458334,-5e-5,-1025.9167)"
           id="path5154" />
      </g>
      <g
         transform="matrix(1.0608328,0,0,1.0608328,-57.684168,-75.151875)"
         id="g5156">
        <g
           transform="matrix(-0.08366864,-2.6364277e-6,-3.40339e-6,0.06481371,-64.158821,192.02412)"
           id="g5158">
          <path
             style="color:#000000;display:inline;overflow:visible;visibility:visible;fill:#140800;fill-opacity:1;fill-rule:nonzero;stroke:none;stroke-width:12;marker:none;enable-background:accumulate"
             d="m -39.5625,459.625 c -1.86644,0.2074 -3.394747,1.42757 -4.53125,2.84375 -0.37755,0.89734 0.04806,1.99402 0.03562,2.96748 0.546519,7.07486 0.717587,14.18538 0.384981,21.27498 -0.226892,5.03418 -0.576366,10.07613 -1.326051,15.06133 -0.349093,0.85412 0.16285,1.75007 0.894901,2.15793 1.920894,0.94084 4.230944,1.03744 6.291795,0.50703 1.001145,-0.29763 1.977674,-0.91789 2.25,-1.96875 0.233938,-4.53379 -0.307074,-9.06244 -0.541991,-13.58719 -0.445134,-6.47207 -0.912221,-12.95944 -0.618018,-19.44997 -0.02406,-2.30317 0.05486,-4.67133 -0.559487,-6.90258 -0.359242,-0.7369 -0.06213,-1.73365 -0.749254,-2.31026 -0.384875,-0.44424 -0.928981,-0.69479 -1.53125,-0.59375 z"
             id="path5160" />
          <g
             id="g5162"
             transform="translate(0,0.12510346)">
            <path
               id="path5164"
               d="m -40.815005,454.49273 c -8.880761,-3.73732 -8.429918,10.9761 -1.688897,11.54079 5.080078,0.42555 7.18617,-2.06818 7.693864,-3.97203 0.625517,-2.34569 0.655958,-6.06497 -1.251036,-7.41238 -1.870769,-1.32181 -4.753931,-0.15638 -4.753931,-0.15638 z"
               style="color:#000000;display:inline;overflow:visible;visibility:visible;fill:#140800;fill-opacity:1;fill-rule:nonzero;stroke:none;stroke-width:12;marker:none;enable-background:accumulate" />
            <path
               id="path5166"
               d="m -41.274849,453.94739 c -3.732139,0.72981 -4.543339,5.14295 -2.854439,8.33308 0.612593,1.15713 1.492224,1.6206 2.406182,1.6876 0.831055,5.77918 0.355405,13.63172 0.717895,21.00003 0.0334,0.007 0.0616,0.0205 0.0937,0.0312 0.500403,0.16683 0.906233,0.41643 0.90622,0.75004 -1.1e-5,0.27022 -0.729808,0.1776 -1.062505,0.12496 -0.100752,1.5243 -0.221739,2.92582 -0.343927,4.34373 0.152389,0.26883 0.439979,0.51994 0.999968,0.7813 1.251016,0.58387 0.58358,0.74981 0.249959,1.00001 -0.271068,0.20328 -1.025364,0.3492 -1.437509,0.21869 -0.114429,1.22305 -0.201553,2.30436 -0.312637,3.37498 0.328625,0.13545 0.73413,0.25406 1.249986,0.34381 1.918237,0.33368 2.083383,0.41626 1.99996,1.00008 -0.06662,0.46607 -1.465822,0.78372 -3.46878,0.71861 -0.306736,2.86244 -0.544657,4.85493 -0.500217,5.34372 0.187656,2.06421 4.124346,2.06379 4.874969,0.7502 0.750624,-1.31358 -1.124158,-13.3096 -1.311813,-16.87505 -0.178013,-3.38222 -0.01604,-18.74886 9.07e-4,-22.3125 -0.514021,-0.20853 -1.208348,-0.53759 -1.406223,-0.65631 -0.226744,-0.13605 0.491525,-0.35568 1.500027,-0.65619 0.47335,-0.25886 0.845992,-0.53341 1.031279,-0.7187 1.376136,-1.37614 1.500677,-2.8731 0.937709,-5.12497 -0.562969,-2.25186 -2.644415,-3.58347 -4.27076,-3.45837 z"
               style="color:#000000;display:inline;overflow:visible;visibility:visible;fill:#ff6700;fill-opacity:1;fill-rule:nonzero;stroke:none;stroke-width:12;marker:none;enable-background:accumulate" />
            <path
               id="path5168"
               transform="matrix(-3.1622761,-1.2863192e-4,-1.660522e-4,4.0822125,-766.05543,-18791.564)"
               d="m -230.84375,4715.4688 c -0.12887,0.4783 -0.0551,0.8159 0.34375,1.125 0.0586,0.045 0.16282,0.124 0.3125,0.1874 0.31891,0.074 0.54045,0.123 0.46875,0.1563 -0.0626,0.029 -0.27495,0.1052 -0.4375,0.1563 3.6e-4,0.06 -7.4e-4,0.2904 0,0.375 0.19778,0.035 0.39192,0.036 0.5,-0.063 0.12901,-0.1172 0.19403,0.2217 0.21875,0.6876 0.0247,-0.4077 0.0593,-0.8024 0.125,-1.1563 0.28902,-0.016 0.55627,-0.1228 0.75,-0.4063 0.13353,-0.1953 0.21737,-0.4109 0.25,-0.625 -0.11537,0.1835 -0.35021,0.4282 -0.96875,0.5313 -0.9349,0.1558 -1.49831,-0.62 -1.5625,-0.9687 z"
               style="color:#000000;display:inline;overflow:visible;visibility:visible;fill:#e15b00;fill-opacity:1;fill-rule:nonzero;stroke:none;stroke-width:12;marker:none;enable-background:accumulate" />
          </g>
        </g>
        <path
           transform="matrix(0.26458334,0,0,0.26458334,-5e-5,-1025.9167)"
           id="path5170"
           d="m -228.97445,4714.9138 c -0.62614,0.2167 -0.0482,1.0355 0.31307,0.867 0.36123,-0.1686 0.0963,-0.6503 -0.0963,-0.7707 -0.19266,-0.1204 -0.21674,-0.096 -0.21674,-0.096 z"
           style="color:#000000;display:inline;overflow:visible;visibility:visible;opacity:0.654867;fill:#ffcc00;fill-opacity:1;fill-rule:nonzero;stroke:none;stroke-width:3;marker:none;enable-background:accumulate" />
      </g>
      <g
         id="g5082"
         transform="matrix(1.0482286,0.02259513,-0.02337556,1.0132324,-51.130579,-62.717104)">
        <path
           id="path5084"
           d="m -62.81684,214.39963 c -3.200843,1.36668 -2.584896,1.17928 -4.03318,1.79299 -1.448282,0.61372 -0.454385,2.05787 0.930134,2.28941 1.095196,0.25869 3.914571,1.02202 6.001041,0.37788 3.030987,-0.93573 2.207077,-3.75529 1.548077,-4.69489 -1.377743,-1.50602 -2.94545,-0.3657 -4.446072,0.23456 z"
           style="color:#000000;display:inline;overflow:visible;visibility:visible;fill:#191919;fill-opacity:1;fill-rule:nonzero;stroke:none;stroke-width:3;marker:none;enable-background:accumulate" />
        <path
           style="color:#000000;display:inline;overflow:visible;visibility:visible;fill:#5d6e79;fill-opacity:1;fill-rule:nonzero;stroke:none;stroke-width:3;marker:none;enable-background:accumulate"
           d="m -62.532485,214.96066 c -2.31312,0.98765 -2.513991,1.03043 -3.560607,1.47393 -1.046615,0.44352 -0.725934,1.19487 0.318688,1.44063 0.791454,0.18694 4.286551,0.86221 5.803933,0.42894 1.978253,-0.56486 1.51912,-3.03995 0.937607,-3.80751 -0.834585,-1.08245 -3.022934,0.25626 -3.499621,0.46401 z"
           id="path5086" />
        <path
           style="color:#000000;display:inline;overflow:visible;visibility:visible;opacity:0.80531;fill:#2c3d48;fill-opacity:1;fill-rule:nonzero;stroke:none;stroke-width:3;marker:none;enable-background:accumulate"
           d="m -247.78125,4689.6875 c -0.95042,-0.016 -1.89561,-0.013 -2.96875,0.031 -4.2926,0.1767 -4.14984,3.2409 -0.78125,5.5 1.93412,1.2995 8.9841,5.6567 14.875,7.9062 -13.62009,-7.8509 -12.60748,-11.4465 -10.8125,-12.375 0.88601,-0.4583 2.71811,-0.7851 4.46875,-1 -1.86475,-0.02 -3.41505,-0.04 -4.78125,-0.062 z"
           transform="matrix(0.24765226,-0.09312735,0.09312735,0.24765226,-440.73384,-968.33529)"
           id="path5088" />
        <path
           id="path5090"
           transform="matrix(0.26031709,-0.04732183,0.04732183,0.26031709,-233.9862,-1015.8512)"
           d="m -189.03125,4691.3125 c -1.37372,0.2805 -2.45495,0.5975 -3.46875,0.9063 -0.40809,0.2848 -1.05715,0.5579 -1.9375,0.5624 -2.31729,0.5273 -4.12079,0.9366 -5.5625,1.25 -4.29711,0.9314 -5.55269,1.1082 -8.6875,1.8126 -0.34017,0.076 -0.62932,0.1794 -0.90625,0.2812 -0.0722,0.027 -0.15077,0.066 -0.21875,0.094 -0.1444,0.06 -0.28075,0.1211 -0.40625,0.1874 -0.13726,0.073 -0.25992,0.1391 -0.375,0.2188 -0.23016,0.1593 -0.41835,0.3484 -0.5625,0.5312 -0.0721,0.091 -0.13625,0.1852 -0.1875,0.2813 -0.0513,0.096 -0.0941,0.1814 -0.125,0.2813 -0.01,0.031 -0.0237,0.063 -0.0312,0.094 -0.0145,0.059 -0.0233,0.1281 -0.0312,0.1875 -0.0141,0.1125 -0.009,0.2285 0,0.3438 9.5e-4,0.011 -0.001,0.02 0,0.031 0.0197,0.2004 0.0685,0.3899 0.15625,0.5938 0.0871,0.2021 0.22405,0.4249 0.375,0.625 0.009,0.012 0.0221,0.019 0.0312,0.031 0.15106,0.1951 0.35351,0.3749 0.5625,0.5625 -0.99136,-2.2087 1.42797,-3.5068 2.71875,-3.8125 1.78355,-0.4219 14.48462,-3.2355 14.48462,-3.2355 1.83911,-0.4087 2.73405,-0.8778 4.17163,-1.827 z"
           style="color:#000000;display:inline;overflow:visible;visibility:visible;fill:#7b8e9a;fill-opacity:1;fill-rule:nonzero;stroke:none;stroke-width:3;marker:none;enable-background:accumulate" />
      </g>
      <g
         transform="matrix(0.76626833,0,0,0.76626833,-78.529692,-11.013752)"
         id="g5042">
        <path
           style="color:#000000;display:inline;overflow:visible;visibility:visible;fill:#191919;fill-opacity:1;fill-rule:nonzero;stroke:none;stroke-width:3;marker:none;enable-background:accumulate"
           d="m -65.753261,216.62785 c -1.546623,-1.69753 -1.810681,-5.99789 -1.546623,-6.18652 0.264057,-0.1886 3.427991,-0.16544 3.284413,0.45142 -0.06047,0.25979 -0.05722,1.33491 0.05594,2.61747 0.113168,1.28259 0.943063,1.73527 1.244844,2.26338 0.30178,0.52811 -1.028307,1.39573 -1.631867,1.2071 -0.603561,-0.1886 -1.40671,-0.35285 -1.40671,-0.35285 z"
           id="path5038" />
        <path
           style="color:#000000;display:inline;overflow:visible;visibility:visible;fill:#d6d6d6;fill-opacity:1;fill-rule:nonzero;stroke:none;stroke-width:3;marker:none;enable-background:accumulate"
           d="m -241.26338,4697.4331 c -3.55848,-1.8105 -5.85833,-5.1455 -7.29726,-8.4797 -1.43749,-3.7962 -3.96074,-9.3796 -2.61354,-12.9167 0.81738,-0.578 6.27748,-0.1467 6.128,0.8257 -0.16859,1.0967 -0.57656,5.562 0.10459,9.2402 0.68115,3.6782 3.67821,5.2002 5.99412,7.3798 2.31591,2.1797 0.95361,3.6782 -0.40869,4.2232 -1.3623,0.5449 -1.90722,-0.2725 -1.90722,-0.2725 z"
           id="path5040"
           transform="matrix(0.26458334,0,0,0.26458334,-5e-5,-1025.9167)" />
        <path
           id="path5074"
           transform="matrix(0.36629296,0,0,0.36629296,25.083126,-1503.5965)"
           d="m -248.9375,4681.5312 c -0.45109,0.019 -0.82115,0.083 -0.96875,0.1876 -0.61468,1.6138 -0.12026,3.8107 0.59375,5.9062 -0.27091,-2.7414 -0.0814,-4.5 0.40625,-4.5 0.68115,0 2.46875,0.2812 2.46875,0.2812 0,0 -5.3e-4,5.2649 1.5,6.9376 -0.20295,-0.4102 -0.37413,-0.8329 -0.46875,-1.3438 -0.49201,-2.6569 -0.18428,-5.8953 -0.0625,-6.6875 0.081,-0.5268 -2.11549,-0.8368 -3.46875,-0.7813 z"
           style="color:#000000;display:inline;overflow:visible;visibility:visible;fill:#ffffff;fill-opacity:1;fill-rule:nonzero;stroke:none;stroke-width:3;marker:none;enable-background:accumulate" />
      </g>
      <g
         id="g4895"
         transform="matrix(-0.08875844,0,0,0.08875844,-143.10614,120.37735)">
        <g
           transform="translate(-186.20087)"
           id="g4897">
          <path
             style="color:#000000;display:inline;overflow:visible;visibility:visible;fill:#191919;fill-opacity:1;fill-rule:nonzero;stroke:none;stroke-width:12;marker:none;enable-background:accumulate"
             d="m 2680.4499,302.79364 c -47.3041,39.0326 -56.1478,74.29096 -70.53,130.4551 -9.8366,38.41313 -20.7359,111.6318 4.3726,145.97001 64.9096,88.77014 164.2903,45.09007 241.5064,43.61139 72.7554,-1.39326 170.338,-123.55368 183.4823,-142.11139 63.812,-90.09209 -36.3048,-66.37547 -77.7812,-89.1875 -41.4764,-22.81203 -132.6292,-58.1877 -161.75,-95.37193 -19.6108,-25.04101 -68.0449,-35.65846 -119.3001,6.63432 z"
             transform="matrix(0.27146289,0,0,0.27146289,-803.37696,258.97537)"
             id="path4899" />
          <path
             style="color:#000000;display:inline;overflow:visible;visibility:visible;fill:#ffffff;fill-opacity:1;fill-rule:nonzero;stroke:none;stroke-width:12;marker:none;enable-background:accumulate"
             d="m -233.90625,338.53125 c 0.0303,0.0666 0.0635,0.12125 0.0937,0.1875 -0.0104,-0.0513 -0.0206,-0.10528 -0.0312,-0.15625 -3.4e-4,-1.3e-4 -0.0625,-0.0312 -0.0625,-0.0312 z m 6.0625,11.21875 c 7.73853,11.85362 15.71059,14.95358 26.875,20.3125 9.7995,4.70376 19.70077,3.39541 25.6875,1.03125 -4.10927,0.43766 -9.68743,0.25963 -15,-1.96875 -16.72118,-7.02188 -32.3138,-16.14946 -37.5625,-19.375 z"
             transform="translate(186.20087)"
             id="path4901" />
          <path
             id="path4903"
             transform="matrix(0.27146289,0,0,0.27146289,-803.37696,258.97537)"
             d="m 2739.9665,299.51874 c -25.4537,0.66906 -83.3514,8.36762 -101.9977,149.07501 -42.6397,162.95544 77.3575,170.7922 202.25,157.59375 28.7715,0.99211 177.9037,-127.09665 190.75,-148.15625 9.8942,-9.64876 18.5387,-19.56599 20.625,-26.71875 4.8388,-16.59056 -16.2933,-42.71895 -28.0449,-37.18876 -8.8002,4.14127 -46.999,25.12217 -79.1739,11.62626 -64.8856,-27.248 -125.6358,-63.35832 -141.5625,-73.3125 -13.1787,-8.23667 -30.4746,-26.23018 -62.846,-32.91876 z"
             style="color:#000000;display:inline;overflow:visible;visibility:visible;fill:#d8dee0;fill-opacity:1;fill-rule:nonzero;stroke:none;stroke-width:12;marker:none;enable-background:accumulate" />
          <path
             id="path4905"
             transform="matrix(-3.1622761,0,0,3.1622761,-757.89914,-14461.154)"
             d="m -244.0625,4696.125 c 3.80962,3.6772 12.61125,10.9132 14.625,10.8438 9.8367,1.0395 19.32917,0.5466 18,-10.3438 -0.0177,-0.093 -0.0443,-0.1901 -0.0625,-0.2812 -1.21586,9.3045 -10.53916,9.9361 -17.53125,8.4374 -7.08405,-2.4186 -9.724,-5.6594 -15.03125,-8.6562 z"
             style="color:#000000;display:inline;overflow:visible;visibility:visible;opacity:0.477876;fill:#739eb5;fill-opacity:1;fill-rule:nonzero;stroke:none;stroke-width:12;marker:none;enable-background:accumulate" />
        </g>
      </g>
      <g
         transform="matrix(-0.08844111,0.00749867,0.00749867,0.08844111,-146.30664,122.66174)"
         id="g4907">
        <g
           id="g4909"
           transform="translate(-186.20087)">
          <path
             style="color:#000000;display:inline;overflow:visible;visibility:visible;fill:#191919;fill-opacity:1;fill-rule:nonzero;stroke:none;stroke-width:12;marker:none;enable-background:accumulate"
             d="m 1916.8379,242.35992 c -23.5943,75.74988 -13.0569,113.9963 34.5085,191.8483 31.0645,46.78127 136.6744,34.8206 170.2645,-1.92636 31.0134,-33.92813 12.3736,-86.57037 2.8133,-130.56014 -24.7266,-94.21759 -142.7326,-204.239451 -207.5863,-59.3618 z"
             transform="matrix(0.27146289,0,0,0.27146289,-623.49803,258.97537)"
             id="path4911" />
          <path
             style="color:#000000;display:inline;overflow:visible;visibility:visible;fill:#d8dee0;fill-opacity:1;fill-rule:nonzero;stroke:none;stroke-width:12;marker:none;enable-background:accumulate"
             d="m 1935.4356,252.0567 c -24.8858,91.24813 31.5628,167.48655 48.6685,198.65453 61.8661,110.68759 166.1015,-2.29389 178.9266,-42.19408 7.8575,-38.09219 -27.0255,-105.42406 -40.6909,-137.73295 -23.758,-49.97616 -94.2523,-106.66989 -186.9042,-18.7275 z"
             transform="matrix(0.27146289,0,0,0.27146289,-623.49803,258.97537)"
             id="path4913" />
          <path
             id="path4956"
             transform="matrix(-2.6200302,0.22214479,0.22214479,2.6200302,-2645.6499,-11744.391)"
             d="m -584.5625,4652.7812 c -2.35222,0.6496 -4.41466,1.4495 -5.75,1.9688 -3.46785,1.3486 -8.18342,7.2277 -2.5,11.5625 5.68342,4.3348 10.03125,4.8125 10.03125,4.8125 0,0 0.82176,5.566 -6.40625,11.5312 3.1075,0.5625 6.23282,-0.6115 8.375,-5.3437 1.48783,-3.3555 6.63716,-11.674 3.28125,-20.8437 -2.56302,-2.0505 -4.89426,-3.2131 -7,-3.6876 -0.009,0 -0.0218,0 -0.0312,0 z"
             style="color:#000000;display:inline;overflow:visible;visibility:visible;opacity:0.654867;fill:#a7bbc6;fill-opacity:1;fill-rule:nonzero;stroke:none;stroke-width:12;marker:none;enable-background:accumulate" />
        </g>
      </g>
      <g
         id="g4917"
         transform="matrix(-0.02356165,-0.00503976,-0.00503976,0.02356165,-52.724458,170.14346)">
        <path
           style="color:#000000;display:inline;overflow:visible;visibility:visible;fill:#0a0a0a;fill-opacity:1;fill-rule:nonzero;stroke:none;stroke-width:12;marker:none;enable-background:accumulate"
           d="m 2801.6707,-244.25437 c 1.037,-76.73137 36.7911,-158.68931 36.7911,-158.68931 0,0 -23.9554,3.12462 -29.1629,-21.87224 -5.2076,-24.99689 46.4438,-34.83295 78.8239,-42.95057 l 56.6977,-4.09335 c -1.026,-21.25227 5.7946,-65.16745 34.1111,-60.03352 35.5347,6.44263 22.005,55.65374 22.005,55.65374 0,0 38.3691,10.96898 49.9953,7.25628 17.2332,-5.50322 74.1683,22.70248 75.3843,91.06475 1.0423,58.59777 -17.4771,105.6239 -75.8017,204.34256 -29.3932,49.75009 -162.7801,-26.09118 -183.5185,-36.46026 -20.7379,-10.36911 -65.3253,-34.21808 -65.3253,-34.21808 z"
           id="path4919" />
        <path
           style="color:#000000;display:inline;overflow:visible;visibility:visible;fill:#d8dee0;fill-opacity:1;fill-rule:nonzero;stroke:none;stroke-width:12;marker:none;enable-background:accumulate"
           d="m 2819.4136,-225.93559 c -12.9039,-31.7986 33.1984,-173.67732 35.9634,-174.59899 2.7654,-0.92171 28.573,-14.74717 25.8075,-15.66888 -2.7649,-0.92171 -32.7201,0.92171 -46.0846,-1.84338 -13.3646,-2.7651 -7.8347,-17.97314 3.2258,-21.19907 11.0604,-3.22597 25.8075,9.21699 29.9552,8.75611 4.1479,-0.46083 -5.991,-11.06037 -3.6868,-12.44291 2.3043,-1.38255 74.8928,-4.03514 81.2004,-6.60604 6.308,-2.57086 15.7548,9.44569 14.9087,2.13719 -0.8465,-7.30854 -1.0723,-23.17644 7.9521,-44.72782 9.0246,-21.55138 18.4806,-10.14547 20.2521,-0.414 1.7709,9.73154 0.6883,17.07947 0.6883,17.07947 0,0 -19.5341,15.66139 -15.7259,18.63593 3.8085,2.97457 57.2425,7.3766 67.8108,9.60253 10.5688,2.22586 54.1811,16.22325 51.5401,90.33474 -2.1555,60.49013 -67.0968,180.00939 -66.9122,192.54228 0.116,7.881 -59.7552,51.52133 -137.4486,18.37792 -23.943,-10.21392 -69.4463,-79.96508 -69.4463,-79.96508 z"
           id="path4921" />
        <path
           id="path4962"
           transform="matrix(-9.6581073,-0.7365526,-0.7365526,9.6581073,699.10386,-45655.975)"
           d="m -589.40625,4630.0625 c -0.39306,0.1123 -0.74562,0.6623 -0.875,1.1563 -0.2587,0.9878 -0.1875,1.75 -0.1875,1.75 0,0 1.88412,1.7549 1.46875,2.0312 -0.4154,0.2763 -5.95711,0.3226 -7.0625,0.4688 -1.10544,0.1461 -5.69005,1.2251 -6,8.875 -0.0603,1.4893 0.22613,3.3524 0.6875,5.3437 -0.56593,-4.3709 0.13796,-9.0892 4.90625,-11.5937 9.53659,-5.0092 21.66141,2.4918 21.46875,1.625 -0.0443,-0.1994 0.19374,-0.7027 0.46875,-1.375 -0.17352,-0.198 -0.39254,-0.3696 -0.65625,-0.4688 -1.11325,-0.4189 -2.7329,0.7363 -3.15625,0.6562 -0.42337,-0.08 0.69509,-1.0895 0.46875,-1.25 -0.22635,-0.1604 -7.68337,-0.9983 -8.3125,-1.3124 -0.62917,-0.3142 -1.67572,0.8394 -1.53125,0.094 0.14452,-0.7457 0.29104,-2.3669 -0.46875,-4.6563 -0.37991,-1.1446 -0.82569,-1.456 -1.21875,-1.3437 z"
           style="color:#000000;display:inline;overflow:visible;visibility:visible;fill:#ffffff;fill-opacity:1;fill-rule:nonzero;stroke:none;stroke-width:12;marker:none;enable-background:accumulate" />
      </g>
      <g
         transform="matrix(1.0608328,0,0,1.0608328,-57.673464,-77.779555)"
         id="g5112">
        <path
           id="path4987"
           d="m -62.375,221.78125 c -0.676295,0.22369 -0.312736,1.19572 -0.40625,1.7625 0.07113,0.4233 -0.257194,1.20276 0.4375,1.14375 0.460018,0.0305 0.67177,-0.32647 0.53125,-0.75 0.02368,-0.69896 0.06718,-1.39722 0.125,-2.09375 -0.213108,-0.0992 -0.459326,-0.12577 -0.6875,-0.0625 z"
           style="color:#000000;display:inline;overflow:visible;visibility:visible;fill:#140800;fill-opacity:1;fill-rule:nonzero;stroke:none;stroke-width:12;marker:none;enable-background:accumulate" />
        <path
           style="color:#000000;display:inline;overflow:visible;visibility:visible;fill:#ff6700;fill-opacity:1;fill-rule:nonzero;stroke:none;stroke-width:12;marker:none;enable-background:accumulate"
           d="m -61.778784,222.33814 c -0.537575,1.3854 -0.293639,1.84567 -0.381938,2.21767 -0.03959,0.16678 -0.280115,0.15473 -0.303666,-0.081 -0.02355,-0.23551 0.07589,-0.98287 -0.11514,-1.94847 -0.07783,-0.39344 0.821679,-0.43963 0.800744,-0.18841 z"
           id="path4989" />
      </g>
      <g
         transform="matrix(0.87410279,0.11837586,-0.11837586,0.87410279,39.455576,-12.35347)"
         id="g4916">
        <path
           style="color:#000000;display:inline;overflow:visible;visibility:visible;fill:#0a0a0a;fill-opacity:1;fill-rule:nonzero;stroke:none;stroke-width:3;marker:none;enable-background:accumulate"
           d="m -154.68923,201.10519 c -0.0147,-0.7728 1.86668,-1.57613 3.03297,-1.0051 0.91881,0.31022 0.52829,1.39615 -0.10888,1.80395 -0.63718,0.40777 -1.91154,0.43325 -2.39579,0.0764 -0.48426,-0.35682 -0.29401,-0.62298 -0.29401,-0.62298 z"
           id="path4912" />
        <path
           id="path4914"
           d="m -154.59912,201.04211 c 0.79085,-0.44485 1.7913,-0.78985 2.46681,-0.5427 0.67552,0.24714 0.0402,1.141 -0.37174,1.40463 -0.4119,0.26361 -1.65022,0.0277 -1.96326,-0.20291 -0.31305,-0.23066 -0.13181,-0.65902 -0.13181,-0.65902 z"
           style="color:#000000;display:inline;overflow:visible;visibility:visible;fill:#d6d6d6;fill-opacity:1;fill-rule:nonzero;stroke:none;stroke-width:3;marker:none;enable-background:accumulate" />
      </g>
      <g
         id="g4884"
         transform="matrix(0.61781909,0.14202197,-0.14360999,0.62031395,30.272724,5.5737492)">
        <path
           id="path4886"
           d="m -173.51882,268.18798 c 0.006,1.67156 -1.30701,2.69805 -2.91786,2.69246 -1.61084,-0.006 -2.90975,-1.04112 -2.91548,-2.71268 -0.006,-1.67153 1.01781,-3.11923 3.00783,-2.99915 1.86748,0.11272 2.81978,1.34784 2.82551,3.01937 z"
           style="color:#000000;display:inline;overflow:visible;visibility:visible;fill:#171717;fill-opacity:1;fill-rule:nonzero;stroke:none;stroke-width:5.326;marker:none;enable-background:accumulate" />
        <path
           id="path4888"
           d="m -423.70769,4952.6684 c 0,7.7456 -5.6043,13.0664 -14.02452,13.175 -9.45012,0.1219 -14.02452,-5.4294 -14.02452,-13.175 0,-7.7455 6.27899,-14.0245 14.02452,-14.0245 7.74553,0 14.02452,6.279 14.02452,14.0245 z"
           style="color:#000000;display:inline;overflow:visible;visibility:visible;fill:#f4f6f6;fill-opacity:1;fill-rule:nonzero;stroke:none;stroke-width:5.326;marker:none;enable-background:accumulate"
           transform="matrix(0.17172354,0,0,0.17172354,-101.29246,-582.51425)" />
        <g
           id="g4890" />
        <path
           id="path4892"
           transform="matrix(0.26458334,0,0,0.26458334,-5e-5,-1025.9167)"
           d="m -657.9375,4889 c -0.0125,2.262 -0.94811,6.2648 -7.09375,7.7812 -5.98534,1.477 -9.78367,-2.0997 -11,-6.0312 0.17373,4.7904 3.14514,8.1705 9.09375,8.0938 5.46501,-0.07 9.09375,-3.5041 9.09375,-8.5313 0,-0.4441 -0.0323,-0.8854 -0.0937,-1.3125 z"
           style="color:#000000;display:inline;overflow:visible;visibility:visible;opacity:0.197115;fill:#008080;fill-opacity:1;fill-rule:nonzero;stroke:none;stroke-width:5.326;marker:none;enable-background:accumulate" />
        <path
           id="path4894"
           transform="matrix(0.26458334,0,0,0.26458334,-5e-5,-1025.9167)"
           d="m -666.9375,4881.1875 c -2.65063,0 -5.02396,1.1607 -6.6875,2.9687 11.62174,-5.077 17.34154,3.3671 14.21875,11.1876 0.99989,-1.3749 1.5625,-3.0699 1.5625,-5.0313 0,-5.0271 -4.06664,-9.125 -9.09375,-9.125 z"
           style="color:#000000;display:inline;overflow:visible;visibility:visible;fill:#ffffff;fill-opacity:1;fill-rule:nonzero;stroke:none;stroke-width:5.326;marker:none;enable-background:accumulate" />
        <circle
           transform="matrix(0.26458334,0,0,0.26458334,-5e-5,-1025.9167)"
           id="path4896"
           style="color:#000000;display:inline;overflow:visible;visibility:visible;fill:#ffffff;fill-opacity:1;fill-rule:nonzero;stroke:none;stroke-width:5.326;marker:none;enable-background:accumulate"
           cx="-661.89215"
           cy="4887.5615"
           r="1.2683095" />
      </g>
      <g
         id="g4904"
         transform="matrix(0.10185588,0.01386254,-0.01001687,0.08579828,-118.89032,128.91049)">
        <circle
           style="color:#000000;display:inline;overflow:visible;visibility:visible;fill:#260000;fill-opacity:1;fill-rule:nonzero;stroke:none;stroke-width:5.326;marker:none;enable-background:accumulate"
           id="path4906"
           transform="matrix(1.340678,0.07768377,-0.08045371,1.4707125,1334.6123,-6939.85)"
           cx="-669.11597"
           cy="4889.4917"
           r="2.0954678" />
        <circle
           transform="matrix(0.26458334,0,0,0.26458334,0.00413425,-1027.7123)"
           id="path4908"
           style="color:#000000;display:inline;overflow:visible;visibility:visible;fill:#ffffff;fill-opacity:1;fill-rule:nonzero;stroke:none;stroke-width:3;marker:none;enable-background:accumulate"
           cx="186.16577"
           cy="4661.1958"
           r="4.4115114" />
      </g>
      <g
         transform="matrix(0.86438168,-0.17582049,0.17582049,0.86438168,-23.039186,-55.86005)"
         id="g5014">
        <g
           id="g4946"
           transform="matrix(0.78466011,0.10626305,-0.10626305,0.78466011,-10.46894,60.055484)">
          <g
             id="g4900">
            <path
               style="color:#000000;display:inline;overflow:visible;visibility:visible;fill:#140c00;fill-opacity:1;fill-rule:nonzero;stroke:none;stroke-width:3;marker:none;enable-background:accumulate"
               d="m -158.59584,207.16987 c 1.20259,2.87912 7.56688,1.73282 9.55154,1.51568 2.21151,-0.32817 4.11441,-0.42622 4.90533,0.22095 0.68436,0.51956 1.07548,0.2919 1.23936,-0.23999 0.45279,-1.46959 -0.75926,-4.16148 -3.03915,-4.91375 -2.41381,-0.79646 -6.53252,0.59945 -6.86154,0.76137 -0.32901,0.16191 -0.11923,0.60871 -1.58972,1.14457 -1.47049,0.53591 -1.74587,-1.59562 -2.75481,-1.50226 -1.00895,0.0933 -1.41107,0.9122 -1.49949,1.26422 0,0 -0.31499,0.98688 0.0485,1.74921 z"
               id="path4071" />
            <path
               style="color:#000000;display:inline;overflow:visible;visibility:visible;fill:#fc9900;fill-opacity:1;fill-rule:nonzero;stroke:none;stroke-width:3;marker:none;enable-background:accumulate"
               d="m -591.86074,4650.586 c -6.9082,1.2889 -7.9539,10.5934 -1.99482,14.3527 8.30941,5.2421 13.63423,2.7782 23.77949,0.4137 9.10149,-2.1212 18.30255,-2.7935 21.86673,-1.9265 3.56418,0.8669 5.39443,2.8898 5.87608,2.6008 0.48164,-0.2889 2.02291,-9.4402 -7.12836,-15.5089 -8.38158,-5.5583 -23.4963,2.3673 -30.68783,2.5705 -7.19156,0.2033 -11.71129,-2.5023 -11.71129,-2.5023 z"
               id="path4898"
               transform="matrix(0.26458334,0,0,0.26458334,-5e-5,-1025.9167)" />
            <path
               style="color:#000000;display:inline;overflow:visible;visibility:visible;fill:#ffe272;fill-opacity:1;fill-rule:nonzero;stroke:none;stroke-width:3;marker:none;enable-background:accumulate"
               d="m -556.9375,4648.4688 c -8.36722,-0.2398 -18.58319,4.0705 -23.0625,4.9374 -0.30934,0.06 -0.60705,0.1108 -0.90625,0.1563 0.18006,0.7698 0.4375,1.7813 0.4375,1.7813 8.09165,-3.7569 17.61708,-6.2679 27.25,-4.4376 8.4043,1.5968 10.57684,8.8439 11.25,11.625 -0.24949,-3.2855 -1.81484,-8.2298 -7.5,-12 -2.0954,-1.3895 -4.67968,-1.9825 -7.46875,-2.0624 z"
               transform="matrix(0.26458334,0,0,0.26458334,-5e-5,-1025.9167)"
               id="path4974" />
            <path
               style="color:#000000;display:inline;overflow:visible;visibility:visible;opacity:0.738938;fill:#ffff00;fill-opacity:1;fill-rule:nonzero;stroke:none;stroke-width:3;marker:none;enable-background:accumulate"
               d="m -556.9375,4648.4688 c -0.37946,-0.011 -0.76986,0.024 -1.15625,0.031 -3.93166,5.6837 -3.45889,11.6764 -2.9375,13.6875 0.10982,0.4236 0.26196,0.8845 0.4375,1.375 5.43111,-0.6863 10.08262,-0.6826 12.375,-0.125 3.56418,0.8669 5.39335,2.8827 5.875,2.5937 0.48164,-0.2888 2.02627,-9.4313 -7.125,-15.5 -2.0954,-1.3895 -4.67968,-1.9825 -7.46875,-2.0624 z"
               transform="matrix(0.26458334,0,0,0.26458334,-5e-5,-1025.9167)"
               id="path4980" />
            <path
               id="path5064"
               transform="matrix(0.40098135,0.02652816,-0.02652816,0.40098135,55.76424,-1662.2817)"
               d="m -209.18204,4670.1875 c -1.76058,0.6037 -2.38724,1.1012 -3.63046,1.2187 -4.71576,0.4462 -7.8125,-1.1562 -7.8125,-1.1562 -4.48242,1.147 -4.76579,7.3205 -0.6875,9.5312 5.68682,3.0828 9.0627,1.2131 15.625,-0.7812 5.88716,-1.7891 11.90203,-2.6334 14.28125,-2.2188 2.37922,0.4147 3.69613,1.6796 4,1.4688 0.0137,-0.01 0.0169,-0.092 0.0312,-0.125 -0.24655,-0.3337 -0.49077,-0.6727 -0.65625,-1.0312 -0.57798,-1.2524 -3.46311,-2.7784 -11.84375,-1.7188 -8.38064,1.0596 -11.27243,4.3199 -17.4375,2.875 -6.16507,-1.445 -4.15625,-4.5312 -4.15625,-4.5312 0,0 1.83721,-0.2701 6.46101,-0.077 3.64735,0.1521 3.83132,-0.4933 5.8257,-3.4538 z"
               style="color:#000000;display:inline;overflow:visible;visibility:visible;opacity:0.300885;fill:#ce5500;fill-opacity:1;fill-rule:nonzero;stroke:none;stroke-width:3;marker:none;enable-background:accumulate" />
          </g>
          <path
             transform="matrix(0.26458334,0,0,0.26458334,-5e-5,-1025.9167)"
             id="path4934"
             d="m -561.02112,4664.5818 c -3.56418,-7.9953 2.60089,-14.8347 2.02291,-14.1604 -0.57797,0.6743 -2.11924,5.1055 -2.11924,8.0917 0,2.9862 2.3119,5.5871 1.92658,6.165 -0.38531,0.578 -1.83025,-0.096 -1.83025,-0.096 z"
             style="color:#000000;display:inline;overflow:visible;visibility:visible;fill:#140c00;fill-opacity:1;fill-rule:nonzero;stroke:none;stroke-width:3;marker:none;enable-background:accumulate" />
        </g>
        <path
           style="color:#000000;display:inline;overflow:visible;visibility:visible;fill:#2b2200;fill-opacity:1;fill-rule:nonzero;stroke:none;stroke-width:3;marker:none;enable-background:accumulate"
           d="m -147.73974,205.13521 c -0.88,-0.0893 -0.47066,0.37758 -0.17733,0.40737 0.29336,0.0296 0.57543,-0.0357 0.45766,-0.21504 -0.11778,-0.1793 -0.28033,-0.19233 -0.28033,-0.19233 z"
           id="path4952" />
      </g>
      <g
         transform="matrix(0.70275534,0.1615468,-0.16335315,0.70559318,48.091404,-13.756601)"
         id="g22165">
        <path
           style="color:#000000;display:inline;overflow:visible;visibility:visible;fill:#171717;fill-opacity:1;fill-rule:nonzero;stroke:none;stroke-width:5.326;marker:none;enable-background:accumulate"
           d="m -173.51045,268.27742 c 0,1.61034 -1.31585,2.60363 -2.92617,2.60363 -1.61032,0 -2.90528,-0.99329 -2.90528,-2.60363 0,-1.61031 1.02818,-3.00843 3.01716,-2.89939 1.86651,0.10236 2.81429,1.28908 2.81429,2.89939 z"
           id="path22167" />
        <path
           transform="matrix(0.17172354,0,0,0.17172354,-101.29246,-582.51425)"
           style="color:#000000;display:inline;overflow:visible;visibility:visible;fill:#f4f6f6;fill-opacity:1;fill-rule:nonzero;stroke:none;stroke-width:5.326;marker:none;enable-background:accumulate"
           d="m -423.70769,4952.6684 c 0,7.7456 -5.6043,13.0664 -14.02452,13.175 -9.45012,0.1219 -14.02452,-5.4294 -14.02452,-13.175 0,-7.7455 6.27899,-14.0245 14.02452,-14.0245 7.74553,0 14.02452,6.279 14.02452,14.0245 z"
           id="path22169" />
        <g
           id="g22171" />
        <path
           style="color:#000000;display:inline;overflow:visible;visibility:visible;opacity:0.197115;fill:#008080;fill-opacity:1;fill-rule:nonzero;stroke:none;stroke-width:5.326;marker:none;enable-background:accumulate"
           d="m -657.9375,4889 c -0.0125,2.262 -0.94811,6.2648 -7.09375,7.7812 -5.98534,1.477 -9.78367,-2.0997 -11,-6.0312 0.17373,4.7904 3.14514,8.1705 9.09375,8.0938 5.46501,-0.07 9.09375,-3.5041 9.09375,-8.5313 0,-0.4441 -0.0323,-0.8854 -0.0937,-1.3125 z"
           transform="matrix(0.26458334,0,0,0.26458334,-5e-5,-1025.9167)"
           id="path22173" />
        <path
           style="color:#000000;display:inline;overflow:visible;visibility:visible;fill:#ffffff;fill-opacity:1;fill-rule:nonzero;stroke:none;stroke-width:5.326;marker:none;enable-background:accumulate"
           d="m -666.9375,4881.1875 c -2.65063,0 -5.02396,1.1607 -6.6875,2.9687 11.62174,-5.077 17.34154,3.3671 14.21875,11.1876 0.99989,-1.3749 1.5625,-3.0699 1.5625,-5.0313 0,-5.0271 -4.06664,-9.125 -9.09375,-9.125 z"
           transform="matrix(0.26458334,0,0,0.26458334,-5e-5,-1025.9167)"
           id="path22175" />
        <circle
           style="color:#000000;display:inline;overflow:visible;visibility:visible;fill:#ffffff;fill-opacity:1;fill-rule:nonzero;stroke:none;stroke-width:5.326;marker:none;enable-background:accumulate"
           id="path22177"
           transform="matrix(0.26458334,0,0,0.26458334,-5e-5,-1025.9167)"
           cx="-661.89215"
           cy="4887.5615"
           r="1.2683095" />
      </g>
      <g
         transform="matrix(0.10185588,0.01386254,-0.01001687,0.08579828,-121.58636,128.24512)"
         id="g22185">
        <circle
           transform="matrix(1.750951,0.11353863,-0.10856803,2.1464432,1749.5664,-10210.452)"
           id="path22187"
           style="color:#000000;display:inline;overflow:visible;visibility:visible;fill:#260000;fill-opacity:1;fill-rule:nonzero;stroke:none;stroke-width:5.326;marker:none;enable-background:accumulate"
           cx="-669.11597"
           cy="4889.4917"
           r="2.0954678" />
        <circle
           style="color:#000000;display:inline;overflow:visible;visibility:visible;fill:#ffffff;fill-opacity:1;fill-rule:nonzero;stroke:none;stroke-width:3;marker:none;enable-background:accumulate"
           id="path22189"
           transform="matrix(0.26458334,0,0,0.26458334,0.00413425,-1027.7123)"
           cx="186.16577"
           cy="4661.1958"
           r="4.4115114" />
      </g>
      <g
         transform="matrix(0.88208194,0,0,0.88208194,16.078179,-32.317809)"
         id="g4994">
        <path
           style="color:#000000;display:inline;overflow:visible;visibility:visible;fill:#0a0a0a;fill-opacity:1;fill-rule:nonzero;stroke:none;stroke-width:3;marker:none;enable-background:accumulate"
           d="m -155.83914,201.26156 c -1.95518,-2.48354 -1.27987,-4.24711 -0.19195,-3.95429 1.08791,0.29282 1.31596,2.90619 1.17197,3.4323 -0.14399,0.52609 -0.98002,0.52199 -0.98002,0.52199 z"
           id="path4920" />
        <path
           style="color:#000000;display:inline;overflow:visible;visibility:visible;fill:#d6d6d6;fill-opacity:1;fill-rule:nonzero;stroke:none;stroke-width:3;marker:none;enable-background:accumulate"
           d="m -155.66055,201.28574 c -1.03544,-1.48603 -1.04744,-2.96164 -0.62077,-3.33944 0.51662,-0.45747 1.07508,1.3277 1.33552,2.09043 0.26043,0.76274 -0.0622,1.26466 -0.39329,1.29255 -0.33114,0.0279 -0.32146,-0.0435 -0.32146,-0.0435 z"
           id="path4922" />
        <path
           style="color:#000000;display:inline;overflow:visible;visibility:visible;fill:#ffffff;fill-opacity:1;fill-rule:nonzero;stroke:none;stroke-width:3;marker:none;enable-background:accumulate"
           d="m -156.08576,197.87655 c -0.0653,-0.006 -0.12899,0.0167 -0.19357,0.0739 -0.37074,0.32827 -0.41427,1.4828 0.26097,2.75539 -0.23331,-0.78119 -0.35187,-1.73681 0.0112,-1.99264 0.24427,-0.17208 0.57557,0.20082 0.79331,0.54967 -0.24005,-0.65216 -0.55585,-1.35471 -0.87191,-1.38633 z"
           id="path4966" />
      </g>
      <circle
         transform="matrix(0.23338418,0,0,0.23338418,16.078135,-937.2604)"
         id="path4992"
         style="color:#000000;display:inline;overflow:visible;visibility:visible;fill:#ffffff;fill-opacity:1;fill-rule:nonzero;stroke:none;stroke-width:3;marker:none;enable-background:accumulate"
         cx="-566.68048"
         cy="4643.1729"
         r="0.50572819" />
      <g
         transform="matrix(1.0608328,0,0,1.0608328,-59.309235,-74.845981)"
         id="g5099">
        <path
           style="color:#000000;display:inline;overflow:visible;visibility:visible;fill:#191919;fill-opacity:1;fill-rule:nonzero;stroke:none;stroke-width:3;marker:none;enable-background:accumulate"
           d="m -61.797823,218.98234 c 0.426954,0.9261 -0.09595,1.36345 0.252309,1.91034 0.355418,0.55813 1.243523,0.39648 1.495832,0.14417 0.25231,-0.2523 0.126156,-0.70286 0.180221,-1.13537 0.05407,-0.43254 0.432531,-0.61278 0.01802,-0.93715 -0.414509,-0.32441 -1.045281,-1.06333 -1.567923,-0.66682 -0.666816,0.34242 -0.378463,0.68483 -0.378463,0.68483 z"
           id="path5095" />
        <path
           id="path5097"
           d="m -61.297233,218.67873 c 0.312099,0.39988 -0.02099,1.58954 0.154566,1.90164 0.175555,0.3121 0.672962,0.21457 0.809505,0.078 0.136543,-0.13654 0.04406,-1.08685 0.07951,-1.32005 0.101348,-0.66661 0.88287,-0.0973 0.658496,-0.27288 0.25141,-0.55124 -1.390255,-1.77712 -2.188727,-0.63905 0.270331,-0.018 0.48665,0.25234 0.48665,0.25234 z"
           style="color:#000000;display:inline;overflow:visible;visibility:visible;fill:#d6d6d6;fill-opacity:1;fill-rule:nonzero;stroke:none;stroke-width:3;marker:none;enable-background:accumulate" />
        <path
           id="path5105"
           transform="matrix(0.26458334,0,0,0.26458334,-5e-5,-1025.9167)"
           d="m -232.625,4703.2188 c 0.57698,0.2792 0.9375,0.75 0.9375,0.75 1.17959,1.5113 -0.0698,6.0079 0.59375,7.1874 0.66351,1.1796 2.54643,0.8287 3.0625,0.3126 0.51607,-0.5161 0.17852,-4.1187 0.3125,-5 0.0994,-0.6536 0.35338,-1.0007 0.6875,-1.1563 -0.22321,-0.012 -0.48003,0.032 -0.75,0.1563 -1.77099,0.8173 -0.82373,2.1064 -0.6875,3.4687 0.13623,1.3623 -0.52637,2.4736 -1.34375,1.6563 -0.81738,-0.8174 0.13305,-3.1378 -0.34375,-4.5 -0.47001,-1.3429 -0.95487,-2.77 -2.46875,-2.875 z"
           style="color:#000000;display:inline;overflow:visible;visibility:visible;opacity:0.123894;fill:#467390;fill-opacity:1;fill-rule:nonzero;stroke:none;stroke-width:3;marker:none;enable-background:accumulate" />
      </g>
      <g
         transform="matrix(1.0608328,0,0,1.0608328,-59.309235,-74.845981)"
         id="g5133">
        <g
           id="g4995"
           transform="matrix(-0.08366864,-2.6364277e-6,-3.40339e-6,0.06481371,-64.158821,192.02412)">
          <path
             style="color:#000000;display:inline;overflow:visible;visibility:visible;fill:#140800;fill-opacity:1;fill-rule:nonzero;stroke:none;stroke-width:12;marker:none;enable-background:accumulate"
             d="m -39.5625,459.15625 c -1.768377,0.0934 -3.212604,1.17929 -4.389322,2.40777 -1.077806,0.84038 -0.717026,2.41641 -0.618004,3.61002 0.521029,6.23342 0.669907,12.49877 0.497956,18.75081 -0.130939,5.5963 -0.481808,11.19844 -1.239316,16.74384 -0.208918,1.04133 -0.583876,2.42588 0.381897,3.18327 1.011749,1.14364 2.713857,1.1407 4.134655,1.35855 1.608188,0.0609 3.389971,-0.13836 4.696485,-1.09067 0.81309,-0.62641 1.212802,-1.6483 1.066899,-2.67609 0.04794,-5.38647 -0.539148,-10.74699 -0.854416,-16.11822 -0.375896,-5.28698 -0.533843,-10.58934 -0.395584,-15.88803 0.06136,-2.74783 -0.0629,-5.52256 -0.78125,-8.1875 -0.07455,-0.95448 -0.786904,-1.77122 -1.65625,-2.0625 -0.277744,-0.0403 -0.565788,-0.10614 -0.84375,-0.0312 z"
             id="path4997" />
          <g
             transform="translate(0,0.12510346)"
             id="g4999">
            <path
               id="path5001"
               d="m -44.03125,453.375 c -1.8331,0.0234 -3.265762,1.53326 -3.71372,3.22282 -0.663471,2.549 -0.338171,5.49564 1.215238,7.63525 0.820132,1.07301 1.854907,1.97401 3.185982,2.26693 2.288667,0.30546 4.784019,0.2154 6.764082,-1.10482 1.148315,-0.82837 2.135114,-2.00534 2.386367,-3.46064 0.427222,-1.79902 0.448387,-3.73196 0.0058,-5.52829 -0.4073,-1.28558 -1.293408,-2.4993 -2.694029,-2.73601 -1.256312,-0.35474 -2.622779,-0.21789 -3.837221,0.20476 -1.082286,-0.33101 -2.160446,-0.67982 -3.312499,-0.5 z"
               style="color:#000000;display:inline;overflow:visible;visibility:visible;fill:#140800;fill-opacity:1;fill-rule:nonzero;stroke:none;stroke-width:12;marker:none;enable-background:accumulate" />
            <path
               style="color:#000000;display:inline;overflow:visible;visibility:visible;fill:#ff6700;fill-opacity:1;fill-rule:nonzero;stroke:none;stroke-width:12;marker:none;enable-background:accumulate"
               d="m -41.196091,454.04907 c -3.73214,0.72981 -4.543339,5.14294 -2.854439,8.33308 0.612593,1.15713 1.492224,1.6206 2.406181,1.6876 0.831055,5.77918 0.355406,13.63172 0.717896,21.00003 0.0334,0.007 0.0616,0.0205 0.0937,0.0312 0.500403,0.16682 0.906233,0.41643 0.906219,0.75004 -1.1e-5,0.27022 -0.729807,0.1776 -1.062505,0.12496 -0.100752,1.5243 -0.221739,2.92582 -0.343927,4.34373 0.152389,0.26883 0.439979,0.51994 0.999969,0.78129 1.251016,0.58388 0.583579,0.74982 0.249959,1.00002 -0.271068,0.20328 -1.025364,0.3492 -1.437509,0.21869 -0.11443,1.22305 -0.201554,2.30436 -0.312637,3.37498 0.328624,0.13545 0.734129,0.25406 1.249986,0.3438 1.918236,0.33369 2.083383,0.41627 1.999959,1.00009 -0.06662,0.46607 -1.465822,0.78372 -3.468779,0.7186 -0.306737,2.86245 -0.544658,4.85494 -0.500218,5.34373 0.187656,2.06421 4.124347,2.06379 4.87497,0.7502 0.750623,-1.31358 -1.124159,-13.3096 -1.311814,-16.87505 -0.178012,-3.38222 -0.01604,-18.74886 9.08e-4,-22.3125 -0.514022,-0.20853 -1.208348,-0.53759 -1.406223,-0.65631 -0.226745,-0.13605 0.491524,-0.35568 1.500026,-0.65619 0.473351,-0.25886 0.845992,-0.53341 1.03128,-0.7187 1.376136,-1.37614 1.500676,-2.8731 0.937708,-5.12497 -0.562968,-2.25186 -2.644414,-3.58347 -4.270759,-3.45837 z"
               id="path5003" />
            <path
               style="color:#000000;display:inline;overflow:visible;visibility:visible;fill:#e15b00;fill-opacity:1;fill-rule:nonzero;stroke:none;stroke-width:12;marker:none;enable-background:accumulate"
               d="m -230.84375,4715.4688 c -0.12887,0.4783 -0.0551,0.8159 0.34375,1.125 0.0586,0.045 0.16282,0.124 0.3125,0.1874 0.31891,0.074 0.54045,0.123 0.46875,0.1563 -0.0626,0.029 -0.27495,0.1052 -0.4375,0.1563 3.6e-4,0.06 -7.4e-4,0.2904 0,0.375 0.19778,0.035 0.39192,0.036 0.5,-0.063 0.12901,-0.1172 0.19403,0.2217 0.21875,0.6876 0.0247,-0.4077 0.0593,-0.8024 0.125,-1.1563 0.28902,-0.016 0.55627,-0.1228 0.75,-0.4063 0.13353,-0.1953 0.21737,-0.4109 0.25,-0.625 -0.11537,0.1835 -0.35021,0.4282 -0.96875,0.5313 -0.9349,0.1558 -1.49831,-0.62 -1.5625,-0.9687 z"
               transform="matrix(-3.1622761,-1.2863192e-4,-1.660522e-4,4.0822125,-766.05543,-18791.564)"
               id="path5120" />
          </g>
        </g>
        <path
           style="color:#000000;display:inline;overflow:visible;visibility:visible;opacity:0.654867;fill:#ffcc00;fill-opacity:1;fill-rule:nonzero;stroke:none;stroke-width:3;marker:none;enable-background:accumulate"
           d="m -228.97445,4714.9138 c -0.62614,0.2167 -0.0482,1.0355 0.31307,0.867 0.36123,-0.1686 0.0963,-0.6503 -0.0963,-0.7707 -0.19266,-0.1204 -0.21674,-0.096 -0.21674,-0.096 z"
           id="path5116"
           transform="matrix(0.26458334,0,0,0.26458334,-5e-5,-1025.9167)" />
      </g>
      <g
         transform="matrix(1.0384867,0.2165911,-0.2165911,1.0384867,-13.845501,-56.673365)"
         id="g5050">
        <path
           style="color:#000000;display:inline;overflow:visible;visibility:visible;fill:#191919;fill-opacity:1;fill-rule:nonzero;stroke:none;stroke-width:3;marker:none;enable-background:accumulate"
           d="m -62.81684,214.39963 c -3.200843,1.36668 -2.584896,1.17928 -4.03318,1.79299 -1.448282,0.61372 -0.454385,2.05787 0.930134,2.28941 1.095196,0.25869 3.914571,1.02202 6.001041,0.37788 3.030987,-0.93573 1.758,-3.49785 0.916853,-4.53256 -0.809537,-0.99583 -1.796378,-0.46838 -1.796378,-0.46838 0,0 -1.189453,0.57671 -2.01847,0.54066 z"
           id="path5046" />
        <path
           id="path5048"
           d="m -62.532485,214.96066 c -2.31312,0.98765 -2.513991,1.03043 -3.560607,1.47393 -1.046615,0.44352 -0.725934,1.19487 0.318688,1.44063 0.791454,0.18694 4.286551,0.86221 5.803933,0.42894 1.978253,-0.56486 1.564261,-3.1947 0.982747,-3.96226 -1.407634,-1.85799 -2.945305,0.22274 -2.945305,0.22274 0,0 -0.166989,0.31508 -0.599456,0.39602 z"
           style="color:#000000;display:inline;overflow:visible;visibility:visible;fill:#5d6e79;fill-opacity:1;fill-rule:nonzero;stroke:none;stroke-width:3;marker:none;enable-background:accumulate" />
        <path
           id="path5069"
           transform="matrix(0.24765226,-0.09312735,0.09312735,0.24765226,-440.73384,-968.33529)"
           d="m -247.78125,4689.6875 c -0.95042,-0.016 -1.89561,-0.013 -2.96875,0.031 -4.2926,0.1767 -4.14984,3.2409 -0.78125,5.5 1.93412,1.2995 8.9841,5.6567 14.875,7.9062 -13.62009,-7.8509 -12.60748,-11.4465 -10.8125,-12.375 0.88601,-0.4583 2.71811,-0.7851 4.46875,-1 -1.86475,-0.02 -3.41505,-0.04 -4.78125,-0.062 z"
           style="color:#000000;display:inline;overflow:visible;visibility:visible;opacity:0.80531;fill:#2c3d48;fill-opacity:1;fill-rule:nonzero;stroke:none;stroke-width:3;marker:none;enable-background:accumulate" />
        <path
           id="path5079"
           transform="matrix(0.24765226,-0.09312735,0.09312735,0.24765226,-440.73384,-968.33529)"
           d="m -228.21875,4686.9688 c -2.71875,-0.032 -5.34375,1.6562 -5.34375,1.6562 0,0 -0.9874,0.914 -2.625,0.625 -9.49693,0.4168 -10.26993,0.2921 -14.5625,0.4688 -3.38383,0.1392 -4.00271,2.0755 -2.46875,4 -0.64565,-2.4006 2.00686,-3.2421 3.34375,-3.3126 1.83025,-0.096 16.46875,-0.094 16.46875,-0.094 0,0 4.41747,-3.2836 7.5,-2.0313 0.92976,0.3778 1.58455,0.7762 2.0625,1.1563 -1.17689,-1.8493 -2.79236,-2.4504 -4.375,-2.4687 z"
           style="color:#000000;display:inline;overflow:visible;visibility:visible;fill:#7b8e9a;fill-opacity:1;fill-rule:nonzero;stroke:none;stroke-width:3;marker:none;enable-background:accumulate" />
      </g>
      <g
         id="g5393"
         transform="matrix(1.317485,-0.07775166,0.07775166,1.317485,-62.662556,-138.58837)">
        <g
           id="g5395"
           transform="matrix(-0.00739152,1.9070158e-4,-8.3938891e-5,0.00679518,-76.574754,244.30129)">
          <path
             style="color:#000000;display:inline;overflow:visible;visibility:visible;fill:#140800;fill-opacity:1;fill-rule:nonzero;stroke:none;stroke-width:7;marker:none;enable-background:accumulate"
             d="m -2589.0938,-2772.9688 c -5.7573,0.1111 -11.5129,0.3001 -17.2588,0.6896 -9.2423,0.5787 -18.4564,1.6214 -27.6091,3.0191 -5.0924,0.8155 -10.1684,1.7525 -15.1874,2.948 -6.3603,1.481 -12.6444,3.292 -18.8279,5.3907 -7.6684,2.6866 -15.0991,6.0146 -22.3672,9.6369 -4.4899,2.279 -8.9198,4.8333 -12.8252,8.0061 -6.272,5.3443 -12.3994,10.9322 -17.5326,17.4065 -1.0842,1.2287 -2.0704,2.5038 -2.802,3.9839 -2.079,4.1081 -4.0474,8.3461 -5.1286,12.8464 -0.4914,1.8869 -0.7353,3.8316 -0.9303,5.7615 -0.8948,2.2732 -2.232,4.3553 -2.9996,6.6863 -2.2987,6.1915 -2.9419,13.0433 -1.5344,19.5147 0.7204,3.3761 1.9534,6.6729 3.7689,9.6061 1.684,2.1792 3.8336,4.0559 5.8645,5.9035 1.4652,1.221 3.4563,1.4576 5.2809,1.7971 4.9333,0.6328 9.9405,-0.2527 14.6371,-1.7674 0.8197,-0.2391 1.6353,-0.4916 2.4517,-0.7414 -0.1429,1.2383 -0.2601,2.4924 -0.3585,3.7434 -0.2622,4.7573 0.3028,9.6504 2.2605,14.0292 0.4772,1.0623 1.0299,2.0693 1.9022,2.8522 1.7011,1.8351 3.3604,3.7929 5.6021,4.9689 4.1338,1.9556 8.8285,2.2994 13.3359,1.9472 5.4974,-0.38 10.9785,-0.9781 16.4604,-1.5252 0.7035,-0.1672 1.5208,-0.1425 1.9942,0.4402 1.4657,0.9939 2.9313,1.9877 4.397,2.9815 -2.1972,4.1566 -2.4105,9.0047 -2.177,13.606 0.2665,6.2341 1.8226,12.3863 4.427,18.0503 0.9974,1.934 2.8413,3.2996 4.4203,4.7298 2.6282,1.471 5.6791,1.9573 8.64,2.2856 5.6307,0.4907 11.2747,-0.1596 16.8617,-0.8391 9.5084,-1.2739 18.8231,-3.6291 28.2003,-5.6033 3.4778,-0.7626 6.9456,-1.5821 10.4402,-2.2605 2.5708,0.3201 5.0894,0.9657 7.6609,1.2924 4.8351,0.7389 9.866,1.1429 14.6516,-0.1049 4.2667,-1.2599 8.1209,-3.5491 12.0739,-5.5199 5.7807,-3.0822 11.3941,-6.4666 17.1879,-9.5249 6.13,-3.2581 12.4814,-6.1168 18.8515,-8.8844 7.0518,-3.0135 14.1377,-5.9632 21.3943,-8.4541 6.5282,-2.2814 13.0968,-4.4645 19.7891,-6.219 12.4032,-3.3491 25.0239,-5.8682 37.7299,-7.7471 9.7101,-1.3707 19.4835,-2.2191 29.2394,-3.1858 5.9967,-0.482 11.9776,-1.351 18.0023,-1.3435 7.7957,0.2804 15.5814,0.7912 23.3803,0.992 9.2456,0.3253 18.4976,0.4166 27.745,0.6827 16.2047,0.2828 32.4094,0.6243 48.6055,1.2315 5.2621,0.1458 10.5445,0.058 15.7638,-0.6863 8.3103,-0.9506 16.4782,-2.9608 24.3677,-5.7216 1.6348,-0.4989 3.202,-1.2452 4.8494,-1.6729 1.6473,-0.269 3.276,0.3557 4.9229,0.4237 5.088,0.5857 10.2094,0.8877 15.3284,1.0046 5.3827,0.01 10.7873,-0.3935 16.0693,-1.4522 4.3568,-0.8868 8.6722,-2.279 12.4806,-4.5791 2.1564,-1.8407 4.139,-4.0013 6.0938,-6.0312 2.4391,-4.4198 2.6049,-9.7995 1.2204,-14.5797 -1.0411,-4.2137 -2.9556,-8.1305 -4.9079,-11.9828 -0.5799,-1.146 -1.3454,-2.1795 -2.2212,-3.1071 -3.7787,-4.6381 -7.9945,-8.9175 -12.5327,-12.8128 -2.8102,-2.4268 -5.7447,-4.7548 -8.5963,-7.1027 -3.4137,-2.6169 -7.1604,-4.7529 -10.79,-7.049 -3.4871,-2.0826 -6.9344,-4.2537 -10.667,-5.8712 -6.8059,-3.1131 -13.9707,-5.36 -21.1773,-7.337 -6.6293,-1.6952 -13.3499,-3.0196 -20.1236,-3.9833 -11.1022,-1.7276 -22.3167,-2.6085 -33.5288,-3.2353 -13.8981,-0.6381 -27.8196,-0.6736 -41.7246,-0.2398 -4.0181,0.1747 -8.0847,0 -12.0519,0.7528 -4.7579,0.9656 -9.2156,2.94 -13.8423,4.3494 -1.0511,0.255 -2.0946,0.6231 -3.156,0.7798 -0.9068,-0.2066 -1.7221,-0.8152 -2.5973,-1.1698 -5.9668,-2.8967 -12.1039,-5.4402 -18.3379,-7.7017 -7.5686,-2.6656 -15.345,-4.7261 -23.2157,-6.2783 -6.3121,-1.2757 -12.699,-2.1267 -19.0906,-2.8852 -6.4965,-0.7561 -13.0037,-1.416 -19.5155,-2.0271 -6.2505,-0.625 -12.511,-1.2223 -18.7228,-2.1593 -8.2671,-1.2601 -16.4293,-3.1317 -24.6964,-4.401 -12.2433,-1.9808 -24.5619,-3.4852 -36.9072,-4.6679 -12.2469,-1.0578 -24.5277,-1.8282 -36.8235,-1.897 -1.8623,-0.046 -3.7252,-7e-4 -5.5877,0.012 z"
             id="path5397" />
          <path
             id="path5399"
             d="m -2397.4254,-2725.3575 c -141.6256,-21.8984 -242.6588,64.4429 -213.3741,59.3534 29.2832,-5.0898 9.9873,40.8303 28.3706,37.2224 18.3852,-3.6082 80.7624,-39.7176 151.2048,-53.1797 70.4439,-13.4617 163.8573,20.6102 173.8511,6.3717 -25.777,-16.7992 -23.2479,-31.5958 -6.7126,-36.9914 16.5372,-5.3953 26.3877,2.3693 9.9229,-3.2372 -16.4664,-5.6054 -90.3915,-1.5737 -121.4658,-5.4063 -26.8214,-3.3075 -21.071,-7.344 -21.7969,-4.1329 z"
             style="color:#000000;display:inline;overflow:visible;visibility:visible;fill:#ff6600;fill-opacity:1;fill-rule:nonzero;stroke:none;stroke-width:7;marker:none;enable-background:accumulate" />
          <path
             id="path5401"
             d="m -2404.6105,-2699.4326 c -39.1729,-2.4712 -104.3538,16.4855 -187.7969,52.259 1.0443,10.1166 1.0441,20.2155 9.9883,18.4596 18.3834,-3.6084 80.7773,-39.8488 151.2213,-53.311 70.4423,-13.4616 163.8517,20.6412 173.8435,6.4031 -4.0514,-2.6415 -7.3506,-5.2517 -10.0577,-7.7648 -20.3874,-2.1295 -66.3438,-7.7579 -106.8916,-8.6711 -6.1197,-0.9147 -20.4482,-6.7542 -30.3069,-7.3758 z"
             style="color:#000000;display:inline;overflow:visible;visibility:visible;opacity:0.265487;fill:#000000;fill-opacity:1;fill-rule:nonzero;stroke:none;stroke-width:2;marker:none;enable-background:accumulate" />
          <path
             id="path5403"
             d="m -2681.2954,-2686.4005 c 28.4491,-19.4087 35.6649,17.3581 35.6649,17.3581 0,0 22.903,-27.5371 62.2519,-48.4274 39.349,-20.8901 99.4005,-20.1682 99.4005,-20.1682 0,0 -57.4677,-14.3954 -113.9089,3.2658 -56.4413,17.6617 -83.4084,47.9709 -83.4084,47.9709 z"
             style="color:#000000;display:inline;overflow:visible;visibility:visible;fill:#ff6600;fill-opacity:1;fill-rule:nonzero;stroke:none;stroke-width:7;marker:none;enable-background:accumulate" />
          <path
             id="path5405"
             d="m -2424.7943,-2728.1589 c -127.2815,-6.2121 -213.4179,66.9241 -186.0536,62.1685 7.9696,-1.3864 12.319,0.9866 14.8304,5.1243 56.1483,-43.154 175.4763,-59.8403 182.4693,-55.8378 4.673,2.6739 -3.1688,-5.7801 -11.2461,-11.455 z"
             style="color:#000000;display:inline;overflow:visible;visibility:visible;opacity:0.287611;fill:#ffff00;fill-opacity:1;fill-rule:nonzero;stroke:none;stroke-width:2;marker:none;enable-background:accumulate" />
          <path
             id="path5407"
             d="m -2505.0892,-2741.2715 c -21.7947,-2.6653 -57.5719,-4.1085 -92.8476,6.9345 -56.4429,17.6618 -83.3984,47.907 -83.3984,47.907 3.3643,-2.2945 6.4432,-3.7284 9.2349,-4.606 0.177,-0.099 0.355,-0.1019 0.4993,-0.213 50.0938,-32.0244 103.6569,-47.591 133.1911,-47.4856 14.5562,0.053 26.2248,-1.0854 33.7648,-2.4508 -0.1804,-0.029 -0.2791,-0.037 -0.4599,-0.082 z"
             style="color:#000000;display:inline;overflow:visible;visibility:visible;opacity:0.287611;fill:#ffff00;fill-opacity:1;fill-rule:nonzero;stroke:none;stroke-width:2;marker:none;enable-background:accumulate" />
          <path
             id="path5409"
             d="m -2249.1185,-2685.0578 c 21.7592,3.2505 31.4454,9.1465 31.4454,9.1465 0,0 3.5583,-8.9237 -8.831,-19.1121 -12.3814,-10.1915 -12.3552,-14.0811 -22.9045,-6.7581 -10.5478,7.3229 0.2148,16.7282 0.2148,16.7282 z"
             style="color:#000000;display:inline;overflow:visible;visibility:visible;fill:#ffeeaa;fill-opacity:1;fill-rule:nonzero;stroke:none;stroke-width:7;marker:none;enable-background:accumulate" />
          <path
             id="path5411"
             d="m -2675.7526,-2674.5989 c -14.3689,9.803 -12.0446,24.0106 -6.5252,21.2979 5.5177,-2.7125 25.2445,-7.7482 21.3249,-13.4954 -3.9227,-5.7478 -14.7997,-7.8025 -14.7997,-7.8025 z"
             style="color:#000000;display:inline;overflow:visible;visibility:visible;fill:#ffeeaa;fill-opacity:1;fill-rule:nonzero;stroke:none;stroke-width:7;marker:none;enable-background:accumulate" />
          <path
             id="path5413"
             d="m -2621.3936,-2644.3042 c -11.6542,15.3228 -15.6049,29.5971 -10.084,26.8849 5.5194,-2.7128 22.076,-10.8505 20.5709,-16.1416 -1.5059,-5.2905 -10.4869,-10.7433 -10.4869,-10.7433 z"
             style="color:#000000;display:inline;overflow:visible;visibility:visible;fill:#ffeeaa;fill-opacity:1;fill-rule:nonzero;stroke:none;stroke-width:7;marker:none;enable-background:accumulate" />
          <path
             id="path5415"
             d="m -2703.7505,-2698.6624 c 10.5814,-3.0084 9.9628,6.8886 9.9628,6.8886 0,0 6.5268,-21.298 51.4327,-40.353 44.9058,-19.0553 115.6877,-9.4408 115.6877,-9.4408 0,0 -83.8496,-13.3345 -126.6318,1.115 -42.7835,14.4493 -50.4514,41.7902 -50.4514,41.7902 z"
             style="color:#000000;display:inline;overflow:visible;visibility:visible;fill:#ff6600;fill-opacity:1;fill-rule:nonzero;stroke:none;stroke-width:7;marker:none;enable-background:accumulate" />
          <path
             id="path5417"
             d="m -2709.3649,-2682.1992 c -9.0766,8.299 -7.5731,13.59 2.0291,9.1453 9.6005,-4.4451 -2.0291,-9.1453 -2.0291,-9.1453 z"
             style="color:#000000;display:inline;overflow:visible;visibility:visible;fill:#ffeeaa;fill-opacity:1;fill-rule:nonzero;stroke:none;stroke-width:7;marker:none;enable-background:accumulate" />
          <path
             id="path5419"
             d="m -2550.167,-2744.52 c -27.9741,-2.8991 -74.518,-5.6116 -103.1501,4.0596 -23.8424,8.0526 -36.6936,20.1749 -43.4753,29.2712 35.5182,-25.9636 57.0607,-26.5224 73.6184,-29.7731 11.4368,-2.2444 30.919,-2.8874 45.6408,-2.9958 2.7986,-0.081 5.5303,0.01 8.2082,0 0.4897,0 1.2225,0.01 1.7001,0.013 0.5545,-0.01 1.0103,-0.022 1.5636,-0.013 4.5124,0.028 7.2545,0.132 7.2545,0.132 0,0 3.5939,-0.2863 8.6505,-0.6891 z"
             style="color:#000000;display:inline;overflow:visible;visibility:visible;opacity:0.287611;fill:#ffff00;fill-opacity:1;fill-rule:nonzero;stroke:none;stroke-width:2;marker:none;enable-background:accumulate" />
          <path
             id="path5421"
             transform="matrix(0.99992367,-0.01831476,-0.01235314,1.0877968,-7225.5473,4292.068)"
             d="m 4783.375,-6365.7812 c -0.4576,0.1181 -0.9328,0.2181 -1.375,0.3437 -1.522,0.4326 -2.102,0.6296 -2.5625,0.7813 -0.058,-0.036 -0.4441,-0.012 -1.5625,0.1562 l -1.3125,-0.875 c 1.806,3.9125 0.7563,4.9394 -0.3437,5.1562 7.1279,0.3645 57.1715,3.2356 85.75,12.8438 4.3702,1.4689 6.1337,2.1532 8.9062,3.0625 -0.5111,-5.8955 4.197,-10.4888 12.375,-12.8125 2.0807,-0.5912 4.0402,-0.9557 5.875,-1.1875 0.4378,-0.055 0.8604,-0.1169 1.2812,-0.1563 2.6736,-0.297 4.9856,-0.3137 6.8126,-0.1874 -0.1379,-0.04 -0.293,-0.081 -0.4376,-0.125 -1.0339,-0.2927 -2.1906,-0.6328 -3.5937,-1.0938 -14.7194,-4.8351 -74.8167,-3.4211 -109.8125,-5.9062 z m -7.1562,5.5624 c -0.5519,-0.028 -1.4376,-0.062 -1.4376,-0.062 0,0 0.7274,0.2024 1.4376,0.062 z m 122,1.7813 c 1.147,0.2953 1.9355,0.493 2.5,0.5937 0.053,0.01 0.1397,0.023 0.1874,0.031 0.01,0 0.023,0 0.031,0 0.3924,0.053 0.6031,0.029 0.6875,0 -0.1759,-0.1181 -1.3898,-0.4193 -3.4062,-0.625 z"
             style="color:#000000;display:inline;overflow:visible;visibility:visible;opacity:0.287611;fill:#ffff00;fill-opacity:1;fill-rule:nonzero;stroke:none;stroke-width:2;marker:none;enable-background:accumulate" />
          <path
             style="color:#000000;display:inline;overflow:visible;visibility:visible;fill:#ff6600;fill-opacity:1;fill-rule:nonzero;stroke:none;stroke-width:2;marker:none;enable-background:accumulate"
             d="m -2423.6406,-2729.1637 c 4.8493,-2.2876 -2.9794,-11.3674 11.5797,-17.6867 14.559,-6.3188 31.5786,-0.1696 37.2797,11.1362 5.7005,11.3063 2.5459,16.2784 2.5459,16.2784 0,0 -18.0336,-2.8593 -27.9165,-6.4475 -9.8823,-3.5882 -20.7797,-3.886 -20.7797,-3.886 z"
             id="path5423" />
          <path
             id="path5425"
             transform="matrix(0.99992367,-0.01831476,-0.01235314,1.0877968,-7225.5473,4292.068)"
             d="m 4502.5625,-6402.3438 a 4.8838856,4.4670219 0.16932044 0 0 -1.3125,8.6876 c 6.952,2.406 10.4359,4.7105 11.5625,5.9062 1.1265,1.1957 0.7654,0.5785 0.5313,1.0312 -0.2343,0.4527 -1.4111,1.5464 -2.625,2.2813 -1.214,0.7349 -2.1876,1.1563 -2.1876,1.1563 a 4.9389105,4.5173502 0.16932044 1 0 4.0313,8.25 c 0,0 1.5637,-0.6255 3.375,-1.6876 a 4.8875697,4.4703915 0.16932044 0 0 6.375,2.5 c 10.6387,-3.7444 18.3604,-4.6206 23.75,-4.0937 5.3895,0.5269 8.5206,2.2933 10.75,4.375 4.4589,4.1634 4.9375,10.125 4.9375,10.125 a 4.8916701,4.4741419 0.16932044 0 0 9.75,-0.1875 c 0,0 -0.337,-9.1468 -7.8438,-16.1562 -3.7533,-3.5048 -9.405,-6.3353 -16.8437,-7.0626 -1.8597,-0.1817 -3.8191,-0.2661 -5.9063,-0.1874 -5.2635,0.1973 -11.2968,1.313 -18.25,3.4687 0.8488,-2.8934 0.1301,-6.7377 -2.5312,-9.5625 -3.0736,-3.2624 -7.8929,-5.8444 -15.6562,-8.5312 a 4.8838856,4.4670219 0.16932044 0 0 -1.9063,-0.3126 z m 185.9063,13.625 a 4.8838856,4.4670219 0.16932044 0 0 -1.6563,8.625 c 36.125,14.1037 46.4777,27.9599 48.8125,37.3438 2.3348,9.3838 -2.75,15.3438 -2.75,15.3438 a 4.9261586,4.5056867 0.16932044 1 0 7.7812,5.5312 c 0,0 7.7544,-9.4193 4.4688,-22.625 -3.2857,-13.2057 -17.0227,-29.1267 -54.7188,-43.8438 a 4.8838856,4.4670219 0.16932044 0 0 -1.9374,-0.375 z m 103.3437,4.1563 a 4.8838856,4.4670219 0.16932044 0 0 -3.2813,1.375 c -16.7693,16.26 -17.3979,34.2517 -13.4687,47.4063 3.9293,13.1545 12.125,22.1562 12.125,22.1562 a 4.8838856,4.4670219 0.16932044 1 0 7.4063,-5.625 c 0,0 -6.8235,-7.6339 -10.125,-18.6875 -3.3017,-11.0536 -3.3586,-24.8654 11.2187,-39 a 4.8838856,4.4670219 0.16932044 0 0 -3.875,-7.625 z m -330.3125,2.125 c -4.6128,0.065 -9.9389,1.033 -16.2188,3.0313 a 4.9320021,4.5110314 0.16932044 1 0 3.4063,8.4687 c 8.5028,-2.7057 14.1456,-2.884 17.5625,-2.1563 3.4168,0.7278 4.8916,2.1043 6.0625,3.9688 2.3416,3.7289 1.8437,9.625 1.8437,9.625 a 4.8838856,4.4670219 0.16932044 0 0 9.3126,2.5625 4.886562,4.4694699 0.16932044 0 0 1,-0.094 c 10.2104,-2.1303 17.3156,-1.731 22.2187,-0.3126 4.903,1.4186 7.7715,3.8031 9.7813,6.5 4.0196,5.394 3.9374,12.0938 3.9374,12.0938 a 4.8838856,4.4670219 0.16932044 1 0 9.7188,0.5625 c 0,0 0.5106,-9.2764 -5.6875,-17.5937 -3.099,-4.1587 -8.0342,-8.0605 -15.0625,-10.0938 -3.5141,-1.0167 -7.5297,-1.5812 -12.0625,-1.5938 -4.1152,-0.012 -8.685,0.4383 -13.75,1.4063 -0.4489,-2.3113 -1.2815,-4.8872 -2.8437,-7.375 -2.3089,-3.6767 -6.5613,-7.1347 -12.5313,-8.4063 -1.4925,-0.3179 -3.0996,-0.4911 -4.7813,-0.5624 -0.6306,-0.027 -1.2472,-0.041 -1.9062,-0.031 z m 172.0312,2.1875 a 4.9044092,4.4857937 0.16932044 0 0 0.25,8.9688 c 19.5946,0.9428 32.1169,5.0324 39.9688,10.1874 7.8519,5.1551 11.355,11.3538 12.875,17.75 3.04,12.7924 -2.875,25.9688 -2.875,25.9688 a 4.9155346,4.4959695 0.16932044 1 0 8.9375,3.75 c 0,0 7.3578,-15.0408 3.4687,-31.4062 -1.9445,-8.1828 -6.9605,-16.8034 -16.875,-23.3126 -9.9143,-6.509 -24.3969,-10.9028 -45.25,-11.9062 a 4.8838856,4.4670219 0.16932044 0 0 -0.5,0 z m 207.5938,6.8125 a 4.8838856,4.4670219 0.16932044 0 0 -2.2188,0.5 c -14.4445,6.6075 -22.0284,14.0228 -24.125,22.1875 -2.0965,8.1647 1.7709,15.8547 7,21.8438 10.4584,11.9781 27.3438,19.5937 27.3438,19.5937 a 4.8838856,4.4670219 0.16932044 1 0 4.1875,-7.9375 c 0,0 -15.6681,-7.5825 -24,-17.125 -4.1659,-4.7713 -6.2205,-9.4618 -5.0313,-14.0938 1.1894,-4.6319 6.0797,-10.4414 19.1876,-16.4374 a 4.8838856,4.4670219 0.16932044 0 0 -2.3438,-8.5313 z m -253.7812,11.4063 c -4.6632,0.05 -9.635,0.3276 -14.9063,0.875 a 4.9188074,4.4989629 0.16932044 1 0 1.4063,8.9062 c 39.8729,-4.1403 56.8498,6.8535 64.4374,18.4375 3.7939,5.792 5.2164,12.0513 5.3438,16.9063 0.064,2.4275 -0.2038,4.4832 -0.5625,5.8437 -0.3587,1.3605 -1.49,1.8927 0.062,0.9375 a 4.9530695,4.5303006 0.16932044 1 0 5.5625,7.5 c 2.9793,-1.8325 3.2362,-3.7583 3.8437,-6.0625 0.6076,-2.3041 0.9257,-5.0669 0.8438,-8.1875 -0.1641,-6.2413 -1.9237,-13.9904 -6.7812,-21.4062 -8.5007,-12.978 -26.6075,-24.1027 -59.25,-23.75 z m -28.5626,15.4687 c -5.8718,0.1035 -12.2443,0.7471 -19.1874,2.0313 l 2.1562,8.7812 c 29.4952,-5.4552 45.2069,1.448 52.5,10.0625 7.2931,8.6145 6.1856,19.7337 1.25,24.5 -7.1216,6.8772 -9.9496,10.4667 -11.2812,13.4375 -0.6659,1.4854 -1.1333,3.1283 -0.25,5.0938 0.4416,0.9827 1.2782,1.885 2.0624,2.375 0.7842,0.49 1.9063,0.75 1.9063,0.75 l 1.7187,-8.75 c 0,0 1.0478,0.2252 1.6876,0.625 0.6397,0.3998 1.3067,1.1356 1.625,1.8437 0.4229,0.9413 0.3423,1.4967 0.2812,1.6875 0.3283,-0.7326 2.6192,-4.2271 9.4062,-10.7812 8.9734,-8.6657 9.3028,-24.2451 -0.7812,-36.1563 -7.563,-8.9334 -20.973,-15.3273 -40.5938,-15.5 -0.8175,-0.01 -1.6611,-0.015 -2.5,0 z"
             style="color:#000000;font-style:normal;font-variant:normal;font-weight:normal;font-stretch:normal;font-size:medium;line-height:normal;font-family:Sans;-inkscape-font-specification:Sans;text-indent:0;text-align:start;text-decoration:none;text-decoration-line:none;letter-spacing:normal;word-spacing:normal;text-transform:none;writing-mode:lr-tb;direction:ltr;baseline-shift:baseline;text-anchor:start;display:inline;overflow:visible;visibility:visible;fill:#140800;fill-opacity:1;stroke:none;stroke-width:9.74071;marker:none;enable-background:accumulate" />
        </g>
        <path
           style="color:#000000;display:inline;overflow:visible;visibility:visible;fill:#140800;fill-opacity:1;fill-rule:nonzero;stroke:none;stroke-width:3;marker:none;enable-background:accumulate"
           d="m -58.88638,225.59557 c -0.210544,0.0942 -0.436369,0.15849 -0.636653,0.27284 0.477935,-0.007 0.9594,0.004 1.430403,0.0992 0.255649,0.0455 0.510345,0.0959 0.760678,0.16536 -0.278739,-0.30572 -0.700088,-0.43106 -1.093687,-0.53125 -0.149524,-0.0252 -0.314511,-0.0598 -0.460741,-0.006 z"
           id="path5427" />
        <path
           transform="matrix(0.26458334,0,0,0.26458334,-5e-5,-1025.9167)"
           id="path5429"
           d="m -224.64332,4730.6392 c 1.14093,-0.6982 3.28655,-0.9196 3.7293,-0.8344 0.44275,0.085 3.03112,0.8514 3.78038,1.226 0.74927,0.3747 0.44275,0.6131 0.17029,0.545 -0.27246,-0.068 -6.79447,-0.7493 -7.13505,-0.7834 -0.34057,-0.034 -0.54492,-0.1532 -0.54492,-0.1532 z"
           style="color:#000000;display:inline;overflow:visible;visibility:visible;fill:#140800;fill-opacity:1;fill-rule:nonzero;stroke:none;stroke-width:3;marker:none;enable-background:accumulate" />
        <path
           transform="matrix(0.26458334,0,0,0.26458334,-5e-5,-1025.9167)"
           id="path5431"
           d="m -223.51942,4730.4008 c 2.21374,-0.1362 5.41514,0.579 5.26188,0.4768 -0.15325,-0.1022 -2.1967,-1.0729 -2.84379,-1.2431 -0.6471,-0.1703 -2.41809,0.7663 -2.41809,0.7663 z"
           style="color:#000000;display:inline;overflow:visible;visibility:visible;fill:#ff6600;fill-opacity:1;fill-rule:nonzero;stroke:none;stroke-width:3;marker:none;enable-background:accumulate" />
        <path
           transform="matrix(0.26458334,0,0,0.26458334,-5e-5,-1025.9167)"
           id="path5433"
           d="m -223.72376,4730.5029 c 0,0.085 -0.0851,0.1533 0.017,0.1192 0.10217,-0.034 2.6054,0.085 4.30827,0.3066 1.70288,0.2213 2.14562,0.4597 2.14562,0.4597 l -0.0341,-0.1873 c 0,0 -2.0094,-0.4597 -3.38873,-0.6811 -1.37933,-0.2214 -3.04814,-0.017 -3.04814,-0.017 z"
           style="color:#000000;display:inline;overflow:visible;visibility:visible;fill:#ff9200;fill-opacity:1;fill-rule:nonzero;stroke:none;stroke-width:3;marker:none;enable-background:accumulate" />
      </g>
      <g
         transform="matrix(1.317485,-0.07775166,0.07775166,1.317485,-64.192824,-138.07827)"
         id="g5249">
        <g
           transform="matrix(-0.00739152,1.9070158e-4,-8.3938891e-5,0.00679518,-76.574754,244.30129)"
           id="g7138">
          <path
             id="path7140"
             d="m -2589.0938,-2772.9688 c -5.7573,0.1111 -11.5129,0.3001 -17.2588,0.6896 -9.2423,0.5787 -18.4564,1.6214 -27.6091,3.0191 -5.0924,0.8155 -10.1684,1.7525 -15.1874,2.948 -6.3603,1.481 -12.6444,3.292 -18.8279,5.3907 -7.6684,2.6866 -15.0991,6.0146 -22.3672,9.6369 -4.4899,2.279 -8.9198,4.8333 -12.8252,8.0061 -6.272,5.3443 -12.3994,10.9322 -17.5326,17.4065 -1.0842,1.2287 -2.0704,2.5038 -2.802,3.9839 -2.079,4.1081 -4.0474,8.3461 -5.1286,12.8464 -0.4914,1.8869 -0.7353,3.8316 -0.9303,5.7615 -0.8948,2.2732 -2.232,4.3553 -2.9996,6.6863 -2.2987,6.1915 -2.9419,13.0433 -1.5344,19.5147 0.7204,3.3761 1.9534,6.6729 3.7689,9.6061 1.684,2.1792 3.8336,4.0559 5.8645,5.9035 1.4652,1.221 3.4563,1.4576 5.2809,1.7971 4.9333,0.6328 9.9405,-0.2527 14.6371,-1.7674 0.8197,-0.2391 1.6353,-0.4916 2.4517,-0.7414 -0.1429,1.2383 -0.2601,2.4924 -0.3585,3.7434 -0.2622,4.7573 0.3028,9.6504 2.2605,14.0292 0.4772,1.0623 1.0299,2.0693 1.9022,2.8522 1.7011,1.8351 3.3604,3.7929 5.6021,4.9689 4.1338,1.9556 8.8285,2.2994 13.3359,1.9472 5.4974,-0.38 10.9785,-0.9781 16.4604,-1.5252 0.7035,-0.1672 1.5208,-0.1425 1.9942,0.4402 1.4657,0.9939 2.9313,1.9877 4.397,2.9815 -2.1972,4.1566 -2.4105,9.0047 -2.177,13.606 0.2665,6.2341 1.8226,12.3863 4.427,18.0503 0.9974,1.934 2.8413,3.2996 4.4203,4.7298 2.6282,1.471 5.6791,1.9573 8.64,2.2856 5.6307,0.4907 11.2747,-0.1596 16.8617,-0.8391 9.5084,-1.2739 18.8231,-3.6291 28.2003,-5.6033 3.4778,-0.7626 6.9456,-1.5821 10.4402,-2.2605 2.5708,0.3201 5.0894,0.9657 7.6609,1.2924 4.8351,0.7389 9.866,1.1429 14.6516,-0.1049 4.2667,-1.2599 8.1209,-3.5491 12.0739,-5.5199 5.7807,-3.0822 11.3941,-6.4666 17.1879,-9.5249 6.13,-3.2581 12.4814,-6.1168 18.8515,-8.8844 7.0518,-3.0135 14.1377,-5.9632 21.3943,-8.4541 6.5282,-2.2814 13.0968,-4.4645 19.7891,-6.219 12.4032,-3.3491 25.0239,-5.8682 37.7299,-7.7471 9.7101,-1.3707 19.4835,-2.2191 29.2394,-3.1858 5.9967,-0.482 11.9776,-1.351 18.0023,-1.3435 7.7957,0.2804 15.5814,0.7912 23.3803,0.992 9.2456,0.3253 18.4976,0.4166 27.745,0.6827 16.2047,0.2828 32.4094,0.6243 48.6055,1.2315 5.2621,0.1458 10.5445,0.058 15.7638,-0.6863 8.3103,-0.9506 16.4782,-2.9608 24.3677,-5.7216 1.6348,-0.4989 3.202,-1.2452 4.8494,-1.6729 1.6473,-0.269 3.276,0.3557 4.9229,0.4237 5.088,0.5857 10.2094,0.8877 15.3284,1.0046 5.3827,0.01 10.7873,-0.3935 16.0693,-1.4522 4.3568,-0.8868 8.6722,-2.279 12.4806,-4.5791 2.1564,-1.8407 4.139,-4.0013 6.0938,-6.0312 2.4391,-4.4198 2.6049,-9.7995 1.2204,-14.5797 -1.0411,-4.2137 -2.9556,-8.1305 -4.9079,-11.9828 -0.5799,-1.146 -1.3454,-2.1795 -2.2212,-3.1071 -3.7787,-4.6381 -7.9945,-8.9175 -12.5327,-12.8128 -2.8102,-2.4268 -5.7447,-4.7548 -8.5963,-7.1027 -3.4137,-2.6169 -7.1604,-4.7529 -10.79,-7.049 -3.4871,-2.0826 -6.9344,-4.2537 -10.667,-5.8712 -6.8059,-3.1131 -13.9707,-5.36 -21.1773,-7.337 -6.6293,-1.6952 -13.3499,-3.0196 -20.1236,-3.9833 -11.1022,-1.7276 -22.3167,-2.6085 -33.5288,-3.2353 -13.8981,-0.6381 -27.8196,-0.6736 -41.7246,-0.2398 -4.0181,0.1747 -8.0847,0 -12.0519,0.7528 -4.7579,0.9656 -9.2156,2.94 -13.8423,4.3494 -1.0511,0.255 -2.0946,0.6231 -3.156,0.7798 -0.9068,-0.2066 -1.7221,-0.8152 -2.5973,-1.1698 -5.9668,-2.8967 -12.1039,-5.4402 -18.3379,-7.7017 -7.5686,-2.6656 -15.345,-4.7261 -23.2157,-6.2783 -6.3121,-1.2757 -12.699,-2.1267 -19.0906,-2.8852 -6.4965,-0.7561 -13.0037,-1.416 -19.5155,-2.0271 -6.2505,-0.625 -12.511,-1.2223 -18.7228,-2.1593 -8.2671,-1.2601 -16.4293,-3.1317 -24.6964,-4.401 -12.2433,-1.9808 -24.5619,-3.4852 -36.9072,-4.6679 -12.2469,-1.0578 -24.5277,-1.8282 -36.8235,-1.897 -1.8623,-0.046 -3.7252,-7e-4 -5.5877,0.012 z"
             style="color:#000000;display:inline;overflow:visible;visibility:visible;fill:#140800;fill-opacity:1;fill-rule:nonzero;stroke:none;stroke-width:7;marker:none;enable-background:accumulate" />
          <path
             style="color:#000000;display:inline;overflow:visible;visibility:visible;fill:#ff6600;fill-opacity:1;fill-rule:nonzero;stroke:none;stroke-width:7;marker:none;enable-background:accumulate"
             d="m -2397.4254,-2725.3575 c -141.6256,-21.8984 -242.6588,64.4429 -213.3741,59.3534 29.2832,-5.0898 9.9873,40.8303 28.3706,37.2224 18.3852,-3.6082 80.7624,-39.7176 151.2048,-53.1797 70.4439,-13.4617 163.8573,20.6102 173.8511,6.3717 -25.777,-16.7992 -23.2479,-31.5958 -6.7126,-36.9914 16.5372,-5.3953 26.3877,2.3693 9.9229,-3.2372 -16.4664,-5.6054 -90.3915,-1.5737 -121.4658,-5.4063 -26.8214,-3.3075 -21.071,-7.344 -21.7969,-4.1329 z"
             id="path7142" />
          <path
             style="color:#000000;display:inline;overflow:visible;visibility:visible;opacity:0.265487;fill:#000000;fill-opacity:1;fill-rule:nonzero;stroke:none;stroke-width:2;marker:none;enable-background:accumulate"
             d="m -2404.6105,-2699.4326 c -39.1729,-2.4712 -104.3538,16.4855 -187.7969,52.259 1.0443,10.1166 1.0441,20.2155 9.9883,18.4596 18.3834,-3.6084 80.7773,-39.8488 151.2213,-53.311 70.4423,-13.4616 163.8517,20.6412 173.8435,6.4031 -4.0514,-2.6415 -7.3506,-5.2517 -10.0577,-7.7648 -20.3874,-2.1295 -66.3438,-7.7579 -106.8916,-8.6711 -6.1197,-0.9147 -20.4482,-6.7542 -30.3069,-7.3758 z"
             id="path7144" />
          <path
             style="color:#000000;display:inline;overflow:visible;visibility:visible;fill:#ff6600;fill-opacity:1;fill-rule:nonzero;stroke:none;stroke-width:7;marker:none;enable-background:accumulate"
             d="m -2681.2954,-2686.4005 c 28.4491,-19.4087 35.6649,17.3581 35.6649,17.3581 0,0 22.903,-27.5371 62.2519,-48.4274 39.349,-20.8901 99.4005,-20.1682 99.4005,-20.1682 0,0 -57.4677,-14.3954 -113.9089,3.2658 -56.4413,17.6617 -83.4084,47.9709 -83.4084,47.9709 z"
             id="path7146" />
          <path
             style="color:#000000;display:inline;overflow:visible;visibility:visible;opacity:0.287611;fill:#ffff00;fill-opacity:1;fill-rule:nonzero;stroke:none;stroke-width:2;marker:none;enable-background:accumulate"
             d="m -2424.7943,-2728.1589 c -127.2815,-6.2121 -213.4179,66.9241 -186.0536,62.1685 7.9696,-1.3864 12.319,0.9866 14.8304,5.1243 56.1483,-43.154 175.4763,-59.8403 182.4693,-55.8378 4.673,2.6739 -3.1688,-5.7801 -11.2461,-11.455 z"
             id="path7148" />
          <path
             style="color:#000000;display:inline;overflow:visible;visibility:visible;opacity:0.287611;fill:#ffff00;fill-opacity:1;fill-rule:nonzero;stroke:none;stroke-width:2;marker:none;enable-background:accumulate"
             d="m -2505.0892,-2741.2715 c -21.7947,-2.6653 -57.5719,-4.1085 -92.8476,6.9345 -56.4429,17.6618 -83.3984,47.907 -83.3984,47.907 3.3643,-2.2945 6.4432,-3.7284 9.2349,-4.606 0.177,-0.099 0.355,-0.1019 0.4993,-0.213 50.0938,-32.0244 103.6569,-47.591 133.1911,-47.4856 14.5562,0.053 26.2248,-1.0854 33.7648,-2.4508 -0.1804,-0.029 -0.2791,-0.037 -0.4599,-0.082 z"
             id="path7150" />
          <path
             style="color:#000000;display:inline;overflow:visible;visibility:visible;fill:#ffeeaa;fill-opacity:1;fill-rule:nonzero;stroke:none;stroke-width:7;marker:none;enable-background:accumulate"
             d="m -2249.1185,-2685.0578 c 21.7592,3.2505 31.4454,9.1465 31.4454,9.1465 0,0 3.5583,-8.9237 -8.831,-19.1121 -12.3814,-10.1915 -12.3552,-14.0811 -22.9045,-6.7581 -10.5478,7.3229 0.2148,16.7282 0.2148,16.7282 z"
             id="path7152" />
          <path
             style="color:#000000;display:inline;overflow:visible;visibility:visible;fill:#ffeeaa;fill-opacity:1;fill-rule:nonzero;stroke:none;stroke-width:7;marker:none;enable-background:accumulate"
             d="m -2675.7526,-2674.5989 c -14.3689,9.803 -12.0446,24.0106 -6.5252,21.2979 5.5177,-2.7125 25.2445,-7.7482 21.3249,-13.4954 -3.9227,-5.7478 -14.7997,-7.8025 -14.7997,-7.8025 z"
             id="path7154" />
          <path
             style="color:#000000;display:inline;overflow:visible;visibility:visible;fill:#ffeeaa;fill-opacity:1;fill-rule:nonzero;stroke:none;stroke-width:7;marker:none;enable-background:accumulate"
             d="m -2621.3936,-2644.3042 c -11.6542,15.3228 -15.6049,29.5971 -10.084,26.8849 5.5194,-2.7128 22.076,-10.8505 20.5709,-16.1416 -1.5059,-5.2905 -10.4869,-10.7433 -10.4869,-10.7433 z"
             id="path7156" />
          <path
             style="color:#000000;display:inline;overflow:visible;visibility:visible;fill:#ff6600;fill-opacity:1;fill-rule:nonzero;stroke:none;stroke-width:7;marker:none;enable-background:accumulate"
             d="m -2703.7505,-2698.6624 c 10.5814,-3.0084 9.9628,6.8886 9.9628,6.8886 0,0 6.5268,-21.298 51.4327,-40.353 44.9058,-19.0553 115.6877,-9.4408 115.6877,-9.4408 0,0 -83.8496,-13.3345 -126.6318,1.115 -42.7835,14.4493 -50.4514,41.7902 -50.4514,41.7902 z"
             id="path7158" />
          <path
             style="color:#000000;display:inline;overflow:visible;visibility:visible;fill:#ffeeaa;fill-opacity:1;fill-rule:nonzero;stroke:none;stroke-width:7;marker:none;enable-background:accumulate"
             d="m -2709.3649,-2682.1992 c -9.0766,8.299 -7.5731,13.59 2.0291,9.1453 9.6005,-4.4451 -2.0291,-9.1453 -2.0291,-9.1453 z"
             id="path7160" />
          <path
             style="color:#000000;display:inline;overflow:visible;visibility:visible;opacity:0.287611;fill:#ffff00;fill-opacity:1;fill-rule:nonzero;stroke:none;stroke-width:2;marker:none;enable-background:accumulate"
             d="m -2550.167,-2744.52 c -27.9741,-2.8991 -74.518,-5.6116 -103.1501,4.0596 -23.8424,8.0526 -36.6936,20.1749 -43.4753,29.2712 35.5182,-25.9636 57.0607,-26.5224 73.6184,-29.7731 11.4368,-2.2444 30.919,-2.8874 45.6408,-2.9958 2.7986,-0.081 5.5303,0.01 8.2082,0 0.4897,0 1.2225,0.01 1.7001,0.013 0.5545,-0.01 1.0103,-0.022 1.5636,-0.013 4.5124,0.028 7.2545,0.132 7.2545,0.132 0,0 3.5939,-0.2863 8.6505,-0.6891 z"
             id="path7164" />
          <path
             style="color:#000000;display:inline;overflow:visible;visibility:visible;opacity:0.287611;fill:#ffff00;fill-opacity:1;fill-rule:nonzero;stroke:none;stroke-width:2;marker:none;enable-background:accumulate"
             d="m 4783.375,-6365.7812 c -0.4576,0.1181 -0.9328,0.2181 -1.375,0.3437 -1.522,0.4326 -2.102,0.6296 -2.5625,0.7813 -0.058,-0.036 -0.4441,-0.012 -1.5625,0.1562 l -1.3125,-0.875 c 1.806,3.9125 0.7563,4.9394 -0.3437,5.1562 7.1279,0.3645 57.1715,3.2356 85.75,12.8438 4.3702,1.4689 6.1337,2.1532 8.9062,3.0625 -0.5111,-5.8955 4.197,-10.4888 12.375,-12.8125 2.0807,-0.5912 4.0402,-0.9557 5.875,-1.1875 0.4378,-0.055 0.8604,-0.1169 1.2812,-0.1563 2.6736,-0.297 4.9856,-0.3137 6.8126,-0.1874 -0.1379,-0.04 -0.293,-0.081 -0.4376,-0.125 -1.0339,-0.2927 -2.1906,-0.6328 -3.5937,-1.0938 -14.7194,-4.8351 -74.8167,-3.4211 -109.8125,-5.9062 z m -7.1562,5.5624 c -0.5519,-0.028 -1.4376,-0.062 -1.4376,-0.062 0,0 0.7274,0.2024 1.4376,0.062 z m 122,1.7813 c 1.147,0.2953 1.9355,0.493 2.5,0.5937 0.053,0.01 0.1397,0.023 0.1874,0.031 0.01,0 0.023,0 0.031,0 0.3924,0.053 0.6031,0.029 0.6875,0 -0.1759,-0.1181 -1.3898,-0.4193 -3.4062,-0.625 z"
             transform="matrix(0.99992367,-0.01831476,-0.01235314,1.0877968,-7225.5473,4292.068)"
             id="path7172" />
          <path
             id="path7186"
             d="m -2423.6406,-2729.1637 c 4.8493,-2.2876 -2.9794,-11.3674 11.5797,-17.6867 14.559,-6.3188 31.5786,-0.1696 37.2797,11.1362 5.7005,11.3063 2.5459,16.2784 2.5459,16.2784 0,0 -18.0336,-2.8593 -27.9165,-6.4475 -9.8823,-3.5882 -20.7797,-3.886 -20.7797,-3.886 z"
             style="color:#000000;display:inline;overflow:visible;visibility:visible;fill:#ff6600;fill-opacity:1;fill-rule:nonzero;stroke:none;stroke-width:2;marker:none;enable-background:accumulate" />
          <path
             style="color:#000000;font-style:normal;font-variant:normal;font-weight:normal;font-stretch:normal;font-size:medium;line-height:normal;font-family:Sans;-inkscape-font-specification:Sans;text-indent:0;text-align:start;text-decoration:none;text-decoration-line:none;letter-spacing:normal;word-spacing:normal;text-transform:none;writing-mode:lr-tb;direction:ltr;baseline-shift:baseline;text-anchor:start;display:inline;overflow:visible;visibility:visible;fill:#140800;fill-opacity:1;stroke:none;stroke-width:9.74071;marker:none;enable-background:accumulate"
             d="m 4502.5625,-6402.3438 a 4.8838856,4.4670219 0.16932044 0 0 -1.3125,8.6876 c 6.952,2.406 10.4359,4.7105 11.5625,5.9062 1.1265,1.1957 0.7654,0.5785 0.5313,1.0312 -0.2343,0.4527 -1.4111,1.5464 -2.625,2.2813 -1.214,0.7349 -2.1876,1.1563 -2.1876,1.1563 a 4.9389105,4.5173502 0.16932044 1 0 4.0313,8.25 c 0,0 1.5637,-0.6255 3.375,-1.6876 a 4.8875697,4.4703915 0.16932044 0 0 6.375,2.5 c 10.6387,-3.7444 18.3604,-4.6206 23.75,-4.0937 5.3895,0.5269 8.5206,2.2933 10.75,4.375 4.4589,4.1634 4.9375,10.125 4.9375,10.125 a 4.8916701,4.4741419 0.16932044 0 0 9.75,-0.1875 c 0,0 -0.337,-9.1468 -7.8438,-16.1562 -3.7533,-3.5048 -9.405,-6.3353 -16.8437,-7.0626 -1.8597,-0.1817 -3.8191,-0.2661 -5.9063,-0.1874 -5.2635,0.1973 -11.2968,1.313 -18.25,3.4687 0.8488,-2.8934 0.1301,-6.7377 -2.5312,-9.5625 -3.0736,-3.2624 -7.8929,-5.8444 -15.6562,-8.5312 a 4.8838856,4.4670219 0.16932044 0 0 -1.9063,-0.3126 z m 185.9063,13.625 a 4.8838856,4.4670219 0.16932044 0 0 -1.6563,8.625 c 36.125,14.1037 46.4777,27.9599 48.8125,37.3438 2.3348,9.3838 -2.75,15.3438 -2.75,15.3438 a 4.9261586,4.5056867 0.16932044 1 0 7.7812,5.5312 c 0,0 7.7544,-9.4193 4.4688,-22.625 -3.2857,-13.2057 -17.0227,-29.1267 -54.7188,-43.8438 a 4.8838856,4.4670219 0.16932044 0 0 -1.9374,-0.375 z m 103.3437,4.1563 a 4.8838856,4.4670219 0.16932044 0 0 -3.2813,1.375 c -16.7693,16.26 -17.3979,34.2517 -13.4687,47.4063 3.9293,13.1545 12.125,22.1562 12.125,22.1562 a 4.8838856,4.4670219 0.16932044 1 0 7.4063,-5.625 c 0,0 -6.8235,-7.6339 -10.125,-18.6875 -3.3017,-11.0536 -3.3586,-24.8654 11.2187,-39 a 4.8838856,4.4670219 0.16932044 0 0 -3.875,-7.625 z m -330.3125,2.125 c -4.6128,0.065 -9.9389,1.033 -16.2188,3.0313 a 4.9320021,4.5110314 0.16932044 1 0 3.4063,8.4687 c 8.5028,-2.7057 14.1456,-2.884 17.5625,-2.1563 3.4168,0.7278 4.8916,2.1043 6.0625,3.9688 2.3416,3.7289 1.8437,9.625 1.8437,9.625 a 4.8838856,4.4670219 0.16932044 0 0 9.3126,2.5625 4.886562,4.4694699 0.16932044 0 0 1,-0.094 c 10.2104,-2.1303 17.3156,-1.731 22.2187,-0.3126 4.903,1.4186 7.7715,3.8031 9.7813,6.5 4.0196,5.394 3.9374,12.0938 3.9374,12.0938 a 4.8838856,4.4670219 0.16932044 1 0 9.7188,0.5625 c 0,0 0.5106,-9.2764 -5.6875,-17.5937 -3.099,-4.1587 -8.0342,-8.0605 -15.0625,-10.0938 -3.5141,-1.0167 -7.5297,-1.5812 -12.0625,-1.5938 -4.1152,-0.012 -8.685,0.4383 -13.75,1.4063 -0.4489,-2.3113 -1.2815,-4.8872 -2.8437,-7.375 -2.3089,-3.6767 -6.5613,-7.1347 -12.5313,-8.4063 -1.4925,-0.3179 -3.0996,-0.4911 -4.7813,-0.5624 -0.6306,-0.027 -1.2472,-0.041 -1.9062,-0.031 z m 172.0312,2.1875 a 4.9044092,4.4857937 0.16932044 0 0 0.25,8.9688 c 19.5946,0.9428 32.1169,5.0324 39.9688,10.1874 7.8519,5.1551 11.355,11.3538 12.875,17.75 3.04,12.7924 -2.875,25.9688 -2.875,25.9688 a 4.9155346,4.4959695 0.16932044 1 0 8.9375,3.75 c 0,0 7.3578,-15.0408 3.4687,-31.4062 -1.9445,-8.1828 -6.9605,-16.8034 -16.875,-23.3126 -9.9143,-6.509 -24.3969,-10.9028 -45.25,-11.9062 a 4.8838856,4.4670219 0.16932044 0 0 -0.5,0 z m 207.5938,6.8125 a 4.8838856,4.4670219 0.16932044 0 0 -2.2188,0.5 c -14.4445,6.6075 -22.0284,14.0228 -24.125,22.1875 -2.0965,8.1647 1.7709,15.8547 7,21.8438 10.4584,11.9781 27.3438,19.5937 27.3438,19.5937 a 4.8838856,4.4670219 0.16932044 1 0 4.1875,-7.9375 c 0,0 -15.6681,-7.5825 -24,-17.125 -4.1659,-4.7713 -6.2205,-9.4618 -5.0313,-14.0938 1.1894,-4.6319 6.0797,-10.4414 19.1876,-16.4374 a 4.8838856,4.4670219 0.16932044 0 0 -2.3438,-8.5313 z m -253.7812,11.4063 c -4.6632,0.05 -9.635,0.3276 -14.9063,0.875 a 4.9188074,4.4989629 0.16932044 1 0 1.4063,8.9062 c 39.8729,-4.1403 56.8498,6.8535 64.4374,18.4375 3.7939,5.792 5.2164,12.0513 5.3438,16.9063 0.064,2.4275 -0.2038,4.4832 -0.5625,5.8437 -0.3587,1.3605 -1.49,1.8927 0.062,0.9375 a 4.9530695,4.5303006 0.16932044 1 0 5.5625,7.5 c 2.9793,-1.8325 3.2362,-3.7583 3.8437,-6.0625 0.6076,-2.3041 0.9257,-5.0669 0.8438,-8.1875 -0.1641,-6.2413 -1.9237,-13.9904 -6.7812,-21.4062 -8.5007,-12.978 -26.6075,-24.1027 -59.25,-23.75 z m -28.5626,15.4687 c -5.8718,0.1035 -12.2443,0.7471 -19.1874,2.0313 l 2.1562,8.7812 c 29.4952,-5.4552 45.2069,1.448 52.5,10.0625 7.2931,8.6145 6.1856,19.7337 1.25,24.5 -7.1216,6.8772 -9.9496,10.4667 -11.2812,13.4375 -0.6659,1.4854 -1.1333,3.1283 -0.25,5.0938 0.4416,0.9827 1.2782,1.885 2.0624,2.375 0.7842,0.49 1.9063,0.75 1.9063,0.75 l 1.7187,-8.75 c 0,0 1.0478,0.2252 1.6876,0.625 0.6397,0.3998 1.3067,1.1356 1.625,1.8437 0.4229,0.9413 0.3423,1.4967 0.2812,1.6875 0.3283,-0.7326 2.6192,-4.2271 9.4062,-10.7812 8.9734,-8.6657 9.3028,-24.2451 -0.7812,-36.1563 -7.563,-8.9334 -20.973,-15.3273 -40.5938,-15.5 -0.8175,-0.01 -1.6611,-0.015 -2.5,0 z"
             transform="matrix(0.99992367,-0.01831476,-0.01235314,1.0877968,-7225.5473,4292.068)"
             id="path7162" />
        </g>
      </g>
    </g>
  </g>
</svg>
